{
	"asset":{
		"generator":"Khronos glTF Blender I/O v4.5.48",
		"version":"2.0"
	},
	"extensionsUsed":[
		"KHR_materials_specular"
	],
	"scene":0,
	"scenes":[
		{
			"name":"Scene",
			"nodes":[
				0
			]
		}
	],
	"nodes":[
		{
			"mesh":0,
			"name":"note_button",
			"translation":[
				0,
				-0.0026432164013385773,
				0
			]
		}
	],
	"materials":[
		{
			"doubleSided":true,
			"extensions":{
				"KHR_materials_specular":{
					"specularFactor":0
				}
			},
			"name":"Black_No_Spec",
			"pbrMetallicRoughness":{
				"baseColorFactor":[
					0,
					0,
					0,
					1
				],
				"metallicFactor":0,
				"roughnessFactor":0.5
			}
		}
	],
	"meshes":[
		{
			"name":"note_button",
			"primitives":[
				{
					"attributes":{
						"POSITION":0,
						"NORMAL":1,
						"TEXCOORD_0":2
					},
					"indices":3
				},
				{
					"attributes":{
						"POSITION":4,
						"NORMAL":5,
						"TEXCOORD_0":6
					},
					"indices":7
				},
				{
					"attributes":{
						"POSITION":8,
						"NORMAL":9,
						"TEXCOORD_0":10
					},
					"indices":11,
					"material":0
				}
			]
		}
	],
	"accessors":[
		{
			"bufferView":0,
			"componentType":5126,
			"count":144,
			"max":[
				0.4695802628993988,
				0.016831904649734497,
				0.4695802628993988
			],
			"min":[
				-0.4695802628993988,
				-0.09400643408298492,
				-0.4695802628993988
			],
			"type":"VEC3"
		},
		{
			"bufferView":1,
			"componentType":5126,
			"count":144,
			"type":"VEC3"
		},
		{
			"bufferView":2,
			"componentType":5126,
			"count":144,
			"type":"VEC2"
		},
		{
			"bufferView":3,
			"componentType":5123,
			"count":234,
			"type":"SCALAR"
		},
		{
			"bufferView":4,
			"componentType":5126,
			"count":44,
			"max":[
				0.3671761453151703,
				0.014548465609550476,
				0.3671761453151703
			],
			"min":[
				-0.3671761453151703,
				0.012294434010982513,
				-0.3671761453151703
			],
			"type":"VEC3"
		},
		{
			"bufferView":5,
			"componentType":5126,
			"count":44,
			"type":"VEC3"
		},
		{
			"bufferView":6,
			"componentType":5126,
			"count":44,
			"type":"VEC2"
		},
		{
			"bufferView":7,
			"componentType":5123,
			"count":90,
			"type":"SCALAR"
		},
		{
			"bufferView":8,
			"componentType":5126,
			"count":168,
			"max":[
				0.4695802628993988,
				0.016831904649734497,
				0.4695802628993988
			],
			"min":[
				-0.4695802628993988,
				-0.09400643408298492,
				-0.4695802628993988
			],
			"type":"VEC3"
		},
		{
			"bufferView":9,
			"componentType":5126,
			"count":168,
			"type":"VEC3"
		},
		{
			"bufferView":10,
			"componentType":5126,
			"count":168,
			"type":"VEC2"
		},
		{
			"bufferView":11,
			"componentType":5123,
			"count":216,
			"type":"SCALAR"
		}
	],
	"bufferViews":[
		{
			"buffer":0,
			"byteLength":1728,
			"byteOffset":0,
			"target":34962
		},
		{
			"buffer":0,
			"byteLength":1728,
			"byteOffset":1728,
			"target":34962
		},
		{
			"buffer":0,
			"byteLength":1152,
			"byteOffset":3456,
			"target":34962
		},
		{
			"buffer":0,
			"byteLength":468,
			"byteOffset":4608,
			"target":34963
		},
		{
			"buffer":0,
			"byteLength":528,
			"byteOffset":5076,
			"target":34962
		},
		{
			"buffer":0,
			"byteLength":528,
			"byteOffset":5604,
			"target":34962
		},
		{
			"buffer":0,
			"byteLength":352,
			"byteOffset":6132,
			"target":34962
		},
		{
			"buffer":0,
			"byteLength":180,
			"byteOffset":6484,
			"target":34963
		},
		{
			"buffer":0,
			"byteLength":2016,
			"byteOffset":6664,
			"target":34962
		},
		{
			"buffer":0,
			"byteLength":2016,
			"byteOffset":8680,
			"target":34962
		},
		{
			"buffer":0,
			"byteLength":1344,
			"byteOffset":10696,
			"target":34962
		},
		{
			"buffer":0,
			"byteLength":432,
			"byteOffset":12040,
			"target":34963
		}
	],
	"buffers":[
		{
			"byteLength":12472,
			"uri":"note_button.bin"
		}
	]
}
