{
	"asset":{
		"generator":"Khronos glTF Blender I/O v5.0.21",
		"version":"2.0"
	},
	"extensionsUsed":[
		"KHR_materials_specular"
	],
	"scene":0,
	"scenes":[
		{
			"name":"Scene",
			"nodes":[
				0
			]
		}
	],
	"nodes":[
		{
			"mesh":0,
			"name":"rail",
			"translation":[
				0,
				0,
				53.388607025146484
			]
		}
	],
	"materials":[
		{
			"doubleSided":true,
			"extensions":{
				"KHR_materials_specular":{
					"specularFactor":0
				}
			},
			"name":"Material.001",
			"pbrMetallicRoughness":{
				"baseColorFactor":[
					0,
					0,
					0,
					1
				],
				"metallicFactor":0,
				"roughnessFactor":0.5
			}
		}
	],
	"meshes":[
		{
			"name":"rail",
			"primitives":[
				{
					"attributes":{
						"POSITION":0,
						"NORMAL":1,
						"TEXCOORD_0":2
					},
					"indices":3
				},
				{
					"attributes":{
						"POSITION":4,
						"NORMAL":5,
						"TEXCOORD_0":6
					},
					"indices":7
				},
				{
					"attributes":{
						"POSITION":8,
						"NORMAL":9,
						"TEXCOORD_0":10
					},
					"indices":11,
					"material":0
				}
			]
		}
	],
	"accessors":[
		{
			"bufferView":0,
			"componentType":5126,
			"count":69,
			"max":[
				0.33097243309020996,
				0.6666666269302368,
				53.485328674316406
			],
			"min":[
				-0.33274245262145996,
				-1.3333333730697632,
				-53.48534393310547
			],
			"type":"VEC3"
		},
		{
			"bufferView":1,
			"componentType":5126,
			"count":69,
			"type":"VEC3"
		},
		{
			"bufferView":2,
			"componentType":5126,
			"count":69,
			"type":"VEC2"
		},
		{
			"bufferView":3,
			"componentType":5123,
			"count":105,
			"type":"SCALAR"
		},
		{
			"bufferView":4,
			"componentType":5126,
			"count":8,
			"max":[
				0.02265167236328125,
				0.62907475233078,
				53.4753303527832
			],
			"min":[
				-0.009112110361456871,
				0.6190747618675232,
				-53.48534393310547
			],
			"type":"VEC3"
		},
		{
			"bufferView":5,
			"componentType":5126,
			"count":8,
			"type":"VEC3"
		},
		{
			"bufferView":6,
			"componentType":5126,
			"count":8,
			"type":"VEC2"
		},
		{
			"bufferView":7,
			"componentType":5123,
			"count":12,
			"type":"SCALAR"
		},
		{
			"bufferView":8,
			"componentType":5126,
			"count":93,
			"max":[
				0.33097243309020996,
				0.6666666269302368,
				53.485328674316406
			],
			"min":[
				-0.33274245262145996,
				-1.3333333730697632,
				-53.48534393310547
			],
			"type":"VEC3"
		},
		{
			"bufferView":9,
			"componentType":5126,
			"count":93,
			"type":"VEC3"
		},
		{
			"bufferView":10,
			"componentType":5126,
			"count":93,
			"type":"VEC2"
		},
		{
			"bufferView":11,
			"componentType":5123,
			"count":129,
			"type":"SCALAR"
		}
	],
	"bufferViews":[
		{
			"buffer":0,
			"byteLength":828,
			"byteOffset":0,
			"target":34962
		},
		{
			"buffer":0,
			"byteLength":828,
			"byteOffset":828,
			"target":34962
		},
		{
			"buffer":0,
			"byteLength":552,
			"byteOffset":1656,
			"target":34962
		},
		{
			"buffer":0,
			"byteLength":210,
			"byteOffset":2208,
			"target":34963
		},
		{
			"buffer":0,
			"byteLength":96,
			"byteOffset":2420,
			"target":34962
		},
		{
			"buffer":0,
			"byteLength":96,
			"byteOffset":2516,
			"target":34962
		},
		{
			"buffer":0,
			"byteLength":64,
			"byteOffset":2612,
			"target":34962
		},
		{
			"buffer":0,
			"byteLength":24,
			"byteOffset":2676,
			"target":34963
		},
		{
			"buffer":0,
			"byteLength":1116,
			"byteOffset":2700,
			"target":34962
		},
		{
			"buffer":0,
			"byteLength":1116,
			"byteOffset":3816,
			"target":34962
		},
		{
			"buffer":0,
			"byteLength":744,
			"byteOffset":4932,
			"target":34962
		},
		{
			"buffer":0,
			"byteLength":258,
			"byteOffset":5676,
			"target":34963
		}
	],
	"buffers":[
		{
			"byteLength":5936,
			"uri":"rail.bin"
		}
	]
}
