{
	"asset":{
		"generator":"Khronos glTF Blender I/O v5.0.21",
		"version":"2.0"
	},
	"scene":0,
	"scenes":[
		{
			"name":"Scene",
			"nodes":[
				0
			]
		}
	],
	"nodes":[
		{
			"mesh":0,
			"name":"note_hold_subd",
			"rotation":[
				0,
				1,
				0,
				0
			],
			"scale":[
				-0.2927604913711548,
				-0.02759331837296486,
				-0.2927604913711548
			]
		}
	],
	"meshes":[
		{
			"name":"note_hold_subd",
			"primitives":[
				{
					"attributes":{
						"POSITION":0,
						"NORMAL":1,
						"TEXCOORD_0":2
					},
					"indices":3
				}
			]
		}
	],
	"accessors":[
		{
			"bufferView":0,
			"componentType":5126,
			"count":1734,
			"max":[
				1.0000001192092896,
				1.2805861234664917,
				0.0004428030224516988
			],
			"min":[
				-1.0000001192092896,
				-0.7194142937660217,
				-1.9995577335357666
			],
			"type":"VEC3"
		},
		{
			"bufferView":1,
			"componentType":5126,
			"count":1734,
			"type":"VEC3"
		},
		{
			"bufferView":2,
			"componentType":5126,
			"count":1734,
			"type":"VEC2"
		},
		{
			"bufferView":3,
			"componentType":5123,
			"count":9216,
			"type":"SCALAR"
		}
	],
	"bufferViews":[
		{
			"buffer":0,
			"byteLength":20808,
			"byteOffset":0,
			"target":34962
		},
		{
			"buffer":0,
			"byteLength":20808,
			"byteOffset":20808,
			"target":34962
		},
		{
			"buffer":0,
			"byteLength":13872,
			"byteOffset":41616,
			"target":34962
		},
		{
			"buffer":0,
			"byteLength":18432,
			"byteOffset":55488,
			"target":34963
		}
	],
	"buffers":[
		{
			"byteLength":73920,
			"uri":"note_hold_subd.bin"
		}
	]
}
