{
	"asset":{
		"generator":"Khronos glTF Blender I/O v5.0.21",
		"version":"2.0"
	},
	"extensionsUsed":[
		"KHR_materials_specular"
	],
	"scene":0,
	"scenes":[
		{
			"name":"Scene",
			"nodes":[
				0
			]
		}
	],
	"nodes":[
		{
			"mesh":0,
			"name":"frat_base",
			"scale":[
				0.3305060863494873,
				0.04505861923098564,
				0.33265984058380127
			]
		}
	],
	"materials":[
		{
			"doubleSided":true,
			"extensions":{
				"KHR_materials_specular":{
					"specularFactor":0
				}
			},
			"name":"black",
			"pbrMetallicRoughness":{
				"baseColorFactor":[
					0,
					0,
					0,
					1
				],
				"metallicFactor":0,
				"roughnessFactor":0.5
			}
		}
	],
	"meshes":[
		{
			"name":"frat_base",
			"primitives":[
				{
					"attributes":{
						"POSITION":0,
						"NORMAL":1,
						"TEXCOORD_0":2
					},
					"indices":3
				},
				{
					"attributes":{
						"POSITION":4,
						"NORMAL":5,
						"TEXCOORD_0":6
					},
					"indices":7,
					"material":0
				}
			]
		}
	],
	"accessors":[
		{
			"bufferView":0,
			"componentType":5126,
			"count":168,
			"max":[
				1,
				0.23047013580799103,
				1
			],
			"min":[
				-1,
				-1.7695298194885254,
				-1
			],
			"type":"VEC3"
		},
		{
			"bufferView":1,
			"componentType":5126,
			"count":168,
			"type":"VEC3"
		},
		{
			"bufferView":2,
			"componentType":5126,
			"count":168,
			"type":"VEC2"
		},
		{
			"bufferView":3,
			"componentType":5123,
			"count":420,
			"type":"SCALAR"
		},
		{
			"bufferView":4,
			"componentType":5126,
			"count":368,
			"max":[
				1,
				0.27017757296562195,
				1
			],
			"min":[
				-1,
				-1.7695298194885254,
				-1
			],
			"type":"VEC3"
		},
		{
			"bufferView":5,
			"componentType":5126,
			"count":368,
			"type":"VEC3"
		},
		{
			"bufferView":6,
			"componentType":5126,
			"count":368,
			"type":"VEC2"
		},
		{
			"bufferView":7,
			"componentType":5123,
			"count":768,
			"type":"SCALAR"
		}
	],
	"bufferViews":[
		{
			"buffer":0,
			"byteLength":2016,
			"byteOffset":0,
			"target":34962
		},
		{
			"buffer":0,
			"byteLength":2016,
			"byteOffset":2016,
			"target":34962
		},
		{
			"buffer":0,
			"byteLength":1344,
			"byteOffset":4032,
			"target":34962
		},
		{
			"buffer":0,
			"byteLength":840,
			"byteOffset":5376,
			"target":34963
		},
		{
			"buffer":0,
			"byteLength":4416,
			"byteOffset":6216,
			"target":34962
		},
		{
			"buffer":0,
			"byteLength":4416,
			"byteOffset":10632,
			"target":34962
		},
		{
			"buffer":0,
			"byteLength":2944,
			"byteOffset":15048,
			"target":34962
		},
		{
			"buffer":0,
			"byteLength":1536,
			"byteOffset":17992,
			"target":34963
		}
	],
	"buffers":[
		{
			"byteLength":19528,
			"uri":"frat_base.bin"
		}
	]
}
