{
	"asset":{
		"generator":"Khronos glTF Blender I/O v5.0.21",
		"version":"2.0"
	},
	"extensionsUsed":[
		"KHR_materials_specular"
	],
	"scene":0,
	"scenes":[
		{
			"name":"Scene",
			"nodes":[
				0
			]
		}
	],
	"nodes":[
		{
			"mesh":0,
			"name":"landmine",
			"translation":[
				0,
				0.06913519650697708,
				-0.0007769300136715174
			]
		}
	],
	"materials":[
		{
			"doubleSided":true,
			"extensions":{
				"KHR_materials_specular":{
					"specularFactor":0
				}
			},
			"name":"Material",
			"pbrMetallicRoughness":{
				"baseColorFactor":[
					0.8000074625015259,
					0,
					0.004133470356464386,
					1
				],
				"metallicFactor":0,
				"roughnessFactor":0.5
			}
		},
		{
			"doubleSided":true,
			"extensions":{
				"KHR_materials_specular":{
					"specularFactor":0
				}
			},
			"name":"black",
			"pbrMetallicRoughness":{
				"baseColorFactor":[
					0,
					0,
					0,
					1
				],
				"metallicFactor":0,
				"roughnessFactor":0.5
			}
		},
		{
			"doubleSided":true,
			"name":"Material.001",
			"pbrMetallicRoughness":{
				"baseColorFactor":[
					0.800000011920929,
					0.800000011920929,
					0.800000011920929,
					1
				],
				"metallicFactor":0,
				"roughnessFactor":0.5
			}
		}
	],
	"meshes":[
		{
			"name":"landmine",
			"primitives":[
				{
					"attributes":{
						"POSITION":0,
						"NORMAL":1,
						"TEXCOORD_0":2
					},
					"indices":3,
					"material":0
				},
				{
					"attributes":{
						"POSITION":4,
						"NORMAL":5,
						"TEXCOORD_0":6
					},
					"indices":7,
					"material":1
				},
				{
					"attributes":{
						"POSITION":8,
						"NORMAL":9,
						"TEXCOORD_0":10
					},
					"indices":11,
					"material":2
				}
			]
		}
	],
	"accessors":[
		{
			"bufferView":0,
			"componentType":5126,
			"count":2993,
			"max":[
				0.3237597346305847,
				0.0664839968085289,
				0.3305095136165619
			],
			"min":[
				-0.3237597346305847,
				-0.06988514959812164,
				-0.3169429302215576
			],
			"type":"VEC3"
		},
		{
			"bufferView":1,
			"componentType":5126,
			"count":2993,
			"type":"VEC3"
		},
		{
			"bufferView":2,
			"componentType":5126,
			"count":2993,
			"type":"VEC2"
		},
		{
			"bufferView":3,
			"componentType":5123,
			"count":15261,
			"type":"SCALAR"
		},
		{
			"bufferView":4,
			"componentType":5126,
			"count":552,
			"max":[
				0.3237338364124298,
				0.0632944330573082,
				0.3304835855960846
			],
			"min":[
				-0.3237338066101074,
				-0.06863195449113846,
				-0.31691989302635193
			],
			"type":"VEC3"
		},
		{
			"bufferView":5,
			"componentType":5126,
			"count":552,
			"type":"VEC3"
		},
		{
			"bufferView":6,
			"componentType":5126,
			"count":552,
			"type":"VEC2"
		},
		{
			"bufferView":7,
			"componentType":5123,
			"count":2136,
			"type":"SCALAR"
		},
		{
			"bufferView":8,
			"componentType":5126,
			"count":32,
			"max":[
				0.006236101966351271,
				0.0664839968085289,
				0.012985894456505775
			],
			"min":[
				-0.006236100569367409,
				0.0664839968085289,
				0.0005136861000210047
			],
			"type":"VEC3"
		},
		{
			"bufferView":9,
			"componentType":5126,
			"count":32,
			"type":"VEC3"
		},
		{
			"bufferView":10,
			"componentType":5126,
			"count":32,
			"type":"VEC2"
		},
		{
			"bufferView":11,
			"componentType":5123,
			"count":90,
			"type":"SCALAR"
		}
	],
	"bufferViews":[
		{
			"buffer":0,
			"byteLength":35916,
			"byteOffset":0,
			"target":34962
		},
		{
			"buffer":0,
			"byteLength":35916,
			"byteOffset":35916,
			"target":34962
		},
		{
			"buffer":0,
			"byteLength":23944,
			"byteOffset":71832,
			"target":34962
		},
		{
			"buffer":0,
			"byteLength":30522,
			"byteOffset":95776,
			"target":34963
		},
		{
			"buffer":0,
			"byteLength":6624,
			"byteOffset":126300,
			"target":34962
		},
		{
			"buffer":0,
			"byteLength":6624,
			"byteOffset":132924,
			"target":34962
		},
		{
			"buffer":0,
			"byteLength":4416,
			"byteOffset":139548,
			"target":34962
		},
		{
			"buffer":0,
			"byteLength":4272,
			"byteOffset":143964,
			"target":34963
		},
		{
			"buffer":0,
			"byteLength":384,
			"byteOffset":148236,
			"target":34962
		},
		{
			"buffer":0,
			"byteLength":384,
			"byteOffset":148620,
			"target":34962
		},
		{
			"buffer":0,
			"byteLength":256,
			"byteOffset":149004,
			"target":34962
		},
		{
			"buffer":0,
			"byteLength":180,
			"byteOffset":149260,
			"target":34963
		}
	],
	"buffers":[
		{
			"byteLength":149440,
			"uri":"landmine.bin"
		}
	]
}
