{
	"asset":{
		"generator":"Khronos glTF Blender I/O v5.0.21",
		"version":"2.0"
	},
	"scene":0,
	"scenes":[
		{
			"name":"Scene",
			"nodes":[
				0
			]
		}
	],
	"nodes":[
		{
			"mesh":0,
			"name":"boat_01"
		}
	],
	"materials":[
		{
			"doubleSided":true,
			"name":"Material",
			"pbrMetallicRoughness":{
				"baseColorFactor":[
					0.800000011920929,
					0.800000011920929,
					0.800000011920929,
					1
				],
				"metallicFactor":0,
				"roughnessFactor":0.5
			}
		}
	],
	"meshes":[
		{
			"name":"boat_01",
			"primitives":[
				{
					"attributes":{
						"POSITION":0,
						"NORMAL":1,
						"TEXCOORD_0":2,
						"TEXCOORD_1":3,
						"TEXCOORD_2":4,
						"TEXCOORD_3":5,
						"COLOR_0":6
					},
					"indices":7,
					"material":0
				},
				{
					"attributes":{
						"POSITION":8,
						"NORMAL":9,
						"TEXCOORD_0":10,
						"TEXCOORD_1":11,
						"TEXCOORD_2":12,
						"TEXCOORD_3":13,
						"COLOR_0":14
					},
					"indices":15
				},
				{
					"attributes":{
						"POSITION":16,
						"NORMAL":17,
						"TEXCOORD_0":18,
						"TEXCOORD_1":19,
						"TEXCOORD_2":20,
						"TEXCOORD_3":21,
						"COLOR_0":22
					},
					"indices":23
				}
			]
		}
	],
	"accessors":[
		{
			"bufferView":0,
			"componentType":5126,
			"count":4065,
			"max":[
				1.9541196823120117,
				1.861842393875122,
				5.620574474334717
			],
			"min":[
				-2.0529417991638184,
				-0.7739335894584656,
				-5.74950647354126
			],
			"type":"VEC3"
		},
		{
			"bufferView":1,
			"componentType":5126,
			"count":4065,
			"type":"VEC3"
		},
		{
			"bufferView":2,
			"componentType":5126,
			"count":4065,
			"type":"VEC2"
		},
		{
			"bufferView":3,
			"componentType":5126,
			"count":4065,
			"type":"VEC2"
		},
		{
			"bufferView":4,
			"componentType":5126,
			"count":4065,
			"type":"VEC2"
		},
		{
			"bufferView":5,
			"componentType":5126,
			"count":4065,
			"type":"VEC2"
		},
		{
			"bufferView":6,
			"componentType":5123,
			"count":4065,
			"normalized":true,
			"type":"VEC4"
		},
		{
			"bufferView":7,
			"componentType":5123,
			"count":10428,
			"type":"SCALAR"
		},
		{
			"bufferView":8,
			"componentType":5126,
			"count":667,
			"max":[
				1.8629844188690186,
				1.9777792692184448,
				5.773591041564941
			],
			"min":[
				-1.8629841804504395,
				0.9624630808830261,
				-5.083712577819824
			],
			"type":"VEC3"
		},
		{
			"bufferView":9,
			"componentType":5126,
			"count":667,
			"type":"VEC3"
		},
		{
			"bufferView":10,
			"componentType":5126,
			"count":667,
			"type":"VEC2"
		},
		{
			"bufferView":11,
			"componentType":5126,
			"count":667,
			"type":"VEC2"
		},
		{
			"bufferView":12,
			"componentType":5126,
			"count":667,
			"type":"VEC2"
		},
		{
			"bufferView":13,
			"componentType":5126,
			"count":667,
			"type":"VEC2"
		},
		{
			"bufferView":14,
			"componentType":5123,
			"count":667,
			"normalized":true,
			"type":"VEC4"
		},
		{
			"bufferView":15,
			"componentType":5123,
			"count":1212,
			"type":"SCALAR"
		},
		{
			"bufferView":16,
			"componentType":5126,
			"count":761,
			"max":[
				1.862544059753418,
				1.8597888946533203,
				2.7556841373443604
			],
			"min":[
				-1.9422420263290405,
				0.3012429475784302,
				-3.2030608654022217
			],
			"type":"VEC3"
		},
		{
			"bufferView":17,
			"componentType":5126,
			"count":761,
			"type":"VEC3"
		},
		{
			"bufferView":18,
			"componentType":5126,
			"count":761,
			"type":"VEC2"
		},
		{
			"bufferView":19,
			"componentType":5126,
			"count":761,
			"type":"VEC2"
		},
		{
			"bufferView":20,
			"componentType":5126,
			"count":761,
			"type":"VEC2"
		},
		{
			"bufferView":21,
			"componentType":5126,
			"count":761,
			"type":"VEC2"
		},
		{
			"bufferView":22,
			"componentType":5123,
			"count":761,
			"normalized":true,
			"type":"VEC4"
		},
		{
			"bufferView":23,
			"componentType":5123,
			"count":1590,
			"type":"SCALAR"
		}
	],
	"bufferViews":[
		{
			"buffer":0,
			"byteLength":48780,
			"byteOffset":0,
			"target":34962
		},
		{
			"buffer":0,
			"byteLength":48780,
			"byteOffset":48780,
			"target":34962
		},
		{
			"buffer":0,
			"byteLength":32520,
			"byteOffset":97560,
			"target":34962
		},
		{
			"buffer":0,
			"byteLength":32520,
			"byteOffset":130080,
			"target":34962
		},
		{
			"buffer":0,
			"byteLength":32520,
			"byteOffset":162600,
			"target":34962
		},
		{
			"buffer":0,
			"byteLength":32520,
			"byteOffset":195120,
			"target":34962
		},
		{
			"buffer":0,
			"byteLength":32520,
			"byteOffset":227640,
			"target":34962
		},
		{
			"buffer":0,
			"byteLength":20856,
			"byteOffset":260160,
			"target":34963
		},
		{
			"buffer":0,
			"byteLength":8004,
			"byteOffset":281016,
			"target":34962
		},
		{
			"buffer":0,
			"byteLength":8004,
			"byteOffset":289020,
			"target":34962
		},
		{
			"buffer":0,
			"byteLength":5336,
			"byteOffset":297024,
			"target":34962
		},
		{
			"buffer":0,
			"byteLength":5336,
			"byteOffset":302360,
			"target":34962
		},
		{
			"buffer":0,
			"byteLength":5336,
			"byteOffset":307696,
			"target":34962
		},
		{
			"buffer":0,
			"byteLength":5336,
			"byteOffset":313032,
			"target":34962
		},
		{
			"buffer":0,
			"byteLength":5336,
			"byteOffset":318368,
			"target":34962
		},
		{
			"buffer":0,
			"byteLength":2424,
			"byteOffset":323704,
			"target":34963
		},
		{
			"buffer":0,
			"byteLength":9132,
			"byteOffset":326128,
			"target":34962
		},
		{
			"buffer":0,
			"byteLength":9132,
			"byteOffset":335260,
			"target":34962
		},
		{
			"buffer":0,
			"byteLength":6088,
			"byteOffset":344392,
			"target":34962
		},
		{
			"buffer":0,
			"byteLength":6088,
			"byteOffset":350480,
			"target":34962
		},
		{
			"buffer":0,
			"byteLength":6088,
			"byteOffset":356568,
			"target":34962
		},
		{
			"buffer":0,
			"byteLength":6088,
			"byteOffset":362656,
			"target":34962
		},
		{
			"buffer":0,
			"byteLength":6088,
			"byteOffset":368744,
			"target":34962
		},
		{
			"buffer":0,
			"byteLength":3180,
			"byteOffset":374832,
			"target":34963
		}
	],
	"buffers":[
		{
			"byteLength":378012,
			"uri":"boat_01.bin"
		}
	]
}
