{
	"asset":{
		"generator":"Khronos glTF Blender I/O v5.0.21",
		"version":"2.0"
	},
	"scene":0,
	"scenes":[
		{
			"name":"Scene",
			"nodes":[
				0,
				1,
				2
			]
		}
	],
	"nodes":[
		{
			"mesh":0,
			"name":"car_left_tire",
			"rotation":[
				-0.00019157014321535826,
				0,
				0,
				1
			],
			"scale":[
				0.5375022292137146,
				0.537502110004425,
				0.5375021696090698
			],
			"translation":[
				0.7243654131889343,
				0.5114895105361938,
				0.7247098088264465
			]
		},
		{
			"mesh":1,
			"name":"car_right_tire",
			"rotation":[
				-0.00019157009955961257,
				0,
				0,
				1
			],
			"scale":[
				0.5375022292137146,
				0.537502110004425,
				0.537502110004425
			],
			"translation":[
				0.7243653535842896,
				0.5109519958496094,
				-0.6781584620475769
			]
		},
		{
			"mesh":2,
			"name":"car_base",
			"rotation":[
				-0.00019157020142301917,
				0,
				0,
				1
			],
			"scale":[
				0.5375022292137146,
				0.537502110004425,
				0.5375021696090698
			],
			"translation":[
				0.6451844573020935,
				0.715039849281311,
				0.07916273176670074
			]
		}
	],
	"meshes":[
		{
			"name":"car_left_tire",
			"primitives":[
				{
					"attributes":{
						"POSITION":0,
						"NORMAL":1,
						"TEXCOORD_0":2,
						"TEXCOORD_1":3
					},
					"indices":4
				},
				{
					"attributes":{
						"POSITION":5,
						"NORMAL":6,
						"TEXCOORD_0":7,
						"TEXCOORD_1":8
					},
					"indices":9
				}
			]
		},
		{
			"name":"car_right_tire",
			"primitives":[
				{
					"attributes":{
						"POSITION":10,
						"NORMAL":11,
						"TEXCOORD_0":12,
						"TEXCOORD_1":13
					},
					"indices":14
				},
				{
					"attributes":{
						"POSITION":15,
						"NORMAL":16,
						"TEXCOORD_0":17,
						"TEXCOORD_1":18
					},
					"indices":19
				}
			]
		},
		{
			"name":"car_base",
			"primitives":[
				{
					"attributes":{
						"POSITION":20,
						"NORMAL":21,
						"TEXCOORD_0":22,
						"TEXCOORD_1":23,
						"TEXCOORD_2":24,
						"TEXCOORD_3":25,
						"COLOR_0":26,
						"COLOR_1":27,
						"COLOR_2":28,
						"COLOR_3":29
					},
					"indices":30
				},
				{
					"attributes":{
						"POSITION":31,
						"NORMAL":32,
						"TEXCOORD_0":33,
						"TEXCOORD_1":34,
						"TEXCOORD_2":35,
						"TEXCOORD_3":36,
						"COLOR_0":37,
						"COLOR_1":38,
						"COLOR_2":39,
						"COLOR_3":40
					},
					"indices":41
				}
			]
		}
	],
	"accessors":[
		{
			"bufferView":0,
			"componentType":5126,
			"count":1097,
			"max":[
				0.10169316828250885,
				0.3144787549972534,
				0.31646302342414856
			],
			"min":[
				-0.1428207904100418,
				-0.31601983308792114,
				-0.31177079677581787
			],
			"type":"VEC3"
		},
		{
			"bufferView":1,
			"componentType":5126,
			"count":1097,
			"type":"VEC3"
		},
		{
			"bufferView":2,
			"componentType":5126,
			"count":1097,
			"type":"VEC2"
		},
		{
			"bufferView":3,
			"componentType":5126,
			"count":1097,
			"type":"VEC2"
		},
		{
			"bufferView":4,
			"componentType":5123,
			"count":1749,
			"type":"SCALAR"
		},
		{
			"bufferView":5,
			"componentType":5126,
			"count":3,
			"max":[
				0.05705980584025383,
				0.016845721751451492,
				0.014503777958452702
			],
			"min":[
				0.05698098987340927,
				-0.003192924428731203,
				-0.008261793293058872
			],
			"type":"VEC3"
		},
		{
			"bufferView":6,
			"componentType":5126,
			"count":3,
			"type":"VEC3"
		},
		{
			"bufferView":7,
			"componentType":5126,
			"count":3,
			"type":"VEC2"
		},
		{
			"bufferView":8,
			"componentType":5126,
			"count":3,
			"type":"VEC2"
		},
		{
			"bufferView":9,
			"componentType":5123,
			"count":3,
			"type":"SCALAR"
		},
		{
			"bufferView":10,
			"componentType":5126,
			"count":266,
			"max":[
				0.10169317573308945,
				0.3144787549972534,
				0.31646302342414856
			],
			"min":[
				-0.1428207904100418,
				-0.31601983308792114,
				-0.31177079677581787
			],
			"type":"VEC3"
		},
		{
			"bufferView":11,
			"componentType":5126,
			"count":266,
			"type":"VEC3"
		},
		{
			"bufferView":12,
			"componentType":5126,
			"count":266,
			"type":"VEC2"
		},
		{
			"bufferView":13,
			"componentType":5126,
			"count":266,
			"type":"VEC2"
		},
		{
			"bufferView":14,
			"componentType":5123,
			"count":630,
			"type":"SCALAR"
		},
		{
			"bufferView":15,
			"componentType":5126,
			"count":834,
			"max":[
				0.08304088562726974,
				0.2259051501750946,
				0.20878610014915466
			],
			"min":[
				-0.1227489709854126,
				-0.2204129695892334,
				-0.2091134488582611
			],
			"type":"VEC3"
		},
		{
			"bufferView":16,
			"componentType":5126,
			"count":834,
			"type":"VEC3"
		},
		{
			"bufferView":17,
			"componentType":5126,
			"count":834,
			"type":"VEC2"
		},
		{
			"bufferView":18,
			"componentType":5126,
			"count":834,
			"type":"VEC2"
		},
		{
			"bufferView":19,
			"componentType":5123,
			"count":1122,
			"type":"SCALAR"
		},
		{
			"bufferView":20,
			"componentType":5126,
			"count":1182,
			"max":[
				0.332878053188324,
				0.6248869299888611,
				2.1459617614746094
			],
			"min":[
				-0.5998222827911377,
				-0.5343698859214783,
				-2.3849756717681885
			],
			"type":"VEC3"
		},
		{
			"bufferView":21,
			"componentType":5126,
			"count":1182,
			"type":"VEC3"
		},
		{
			"bufferView":22,
			"componentType":5126,
			"count":1182,
			"type":"VEC2"
		},
		{
			"bufferView":23,
			"componentType":5126,
			"count":1182,
			"type":"VEC2"
		},
		{
			"bufferView":24,
			"componentType":5126,
			"count":1182,
			"type":"VEC2"
		},
		{
			"bufferView":25,
			"componentType":5126,
			"count":1182,
			"type":"VEC2"
		},
		{
			"bufferView":26,
			"componentType":5123,
			"count":1182,
			"normalized":true,
			"type":"VEC4"
		},
		{
			"bufferView":27,
			"componentType":5123,
			"count":1182,
			"normalized":true,
			"type":"VEC4"
		},
		{
			"bufferView":28,
			"componentType":5123,
			"count":1182,
			"normalized":true,
			"type":"VEC4"
		},
		{
			"bufferView":29,
			"componentType":5123,
			"count":1182,
			"normalized":true,
			"type":"VEC4"
		},
		{
			"bufferView":30,
			"componentType":5123,
			"count":1854,
			"type":"SCALAR"
		},
		{
			"bufferView":31,
			"componentType":5126,
			"count":249,
			"max":[
				0.3278891444206238,
				0.5788367390632629,
				0.572799801826477
			],
			"min":[
				-0.080568827688694,
				-0.3739382326602936,
				-0.6805588006973267
			],
			"type":"VEC3"
		},
		{
			"bufferView":32,
			"componentType":5126,
			"count":249,
			"type":"VEC3"
		},
		{
			"bufferView":33,
			"componentType":5126,
			"count":249,
			"type":"VEC2"
		},
		{
			"bufferView":34,
			"componentType":5126,
			"count":249,
			"type":"VEC2"
		},
		{
			"bufferView":35,
			"componentType":5126,
			"count":249,
			"type":"VEC2"
		},
		{
			"bufferView":36,
			"componentType":5126,
			"count":249,
			"type":"VEC2"
		},
		{
			"bufferView":37,
			"componentType":5123,
			"count":249,
			"normalized":true,
			"type":"VEC4"
		},
		{
			"bufferView":38,
			"componentType":5123,
			"count":249,
			"normalized":true,
			"type":"VEC4"
		},
		{
			"bufferView":39,
			"componentType":5123,
			"count":249,
			"normalized":true,
			"type":"VEC4"
		},
		{
			"bufferView":40,
			"componentType":5123,
			"count":249,
			"normalized":true,
			"type":"VEC4"
		},
		{
			"bufferView":41,
			"componentType":5123,
			"count":441,
			"type":"SCALAR"
		}
	],
	"bufferViews":[
		{
			"buffer":0,
			"byteLength":13164,
			"byteOffset":0,
			"target":34962
		},
		{
			"buffer":0,
			"byteLength":13164,
			"byteOffset":13164,
			"target":34962
		},
		{
			"buffer":0,
			"byteLength":8776,
			"byteOffset":26328,
			"target":34962
		},
		{
			"buffer":0,
			"byteLength":8776,
			"byteOffset":35104,
			"target":34962
		},
		{
			"buffer":0,
			"byteLength":3498,
			"byteOffset":43880,
			"target":34963
		},
		{
			"buffer":0,
			"byteLength":36,
			"byteOffset":47380,
			"target":34962
		},
		{
			"buffer":0,
			"byteLength":36,
			"byteOffset":47416,
			"target":34962
		},
		{
			"buffer":0,
			"byteLength":24,
			"byteOffset":47452,
			"target":34962
		},
		{
			"buffer":0,
			"byteLength":24,
			"byteOffset":47476,
			"target":34962
		},
		{
			"buffer":0,
			"byteLength":6,
			"byteOffset":47500,
			"target":34963
		},
		{
			"buffer":0,
			"byteLength":3192,
			"byteOffset":47508,
			"target":34962
		},
		{
			"buffer":0,
			"byteLength":3192,
			"byteOffset":50700,
			"target":34962
		},
		{
			"buffer":0,
			"byteLength":2128,
			"byteOffset":53892,
			"target":34962
		},
		{
			"buffer":0,
			"byteLength":2128,
			"byteOffset":56020,
			"target":34962
		},
		{
			"buffer":0,
			"byteLength":1260,
			"byteOffset":58148,
			"target":34963
		},
		{
			"buffer":0,
			"byteLength":10008,
			"byteOffset":59408,
			"target":34962
		},
		{
			"buffer":0,
			"byteLength":10008,
			"byteOffset":69416,
			"target":34962
		},
		{
			"buffer":0,
			"byteLength":6672,
			"byteOffset":79424,
			"target":34962
		},
		{
			"buffer":0,
			"byteLength":6672,
			"byteOffset":86096,
			"target":34962
		},
		{
			"buffer":0,
			"byteLength":2244,
			"byteOffset":92768,
			"target":34963
		},
		{
			"buffer":0,
			"byteLength":14184,
			"byteOffset":95012,
			"target":34962
		},
		{
			"buffer":0,
			"byteLength":14184,
			"byteOffset":109196,
			"target":34962
		},
		{
			"buffer":0,
			"byteLength":9456,
			"byteOffset":123380,
			"target":34962
		},
		{
			"buffer":0,
			"byteLength":9456,
			"byteOffset":132836,
			"target":34962
		},
		{
			"buffer":0,
			"byteLength":9456,
			"byteOffset":142292,
			"target":34962
		},
		{
			"buffer":0,
			"byteLength":9456,
			"byteOffset":151748,
			"target":34962
		},
		{
			"buffer":0,
			"byteLength":9456,
			"byteOffset":161204,
			"target":34962
		},
		{
			"buffer":0,
			"byteLength":9456,
			"byteOffset":170660,
			"target":34962
		},
		{
			"buffer":0,
			"byteLength":9456,
			"byteOffset":180116,
			"target":34962
		},
		{
			"buffer":0,
			"byteLength":9456,
			"byteOffset":189572,
			"target":34962
		},
		{
			"buffer":0,
			"byteLength":3708,
			"byteOffset":199028,
			"target":34963
		},
		{
			"buffer":0,
			"byteLength":2988,
			"byteOffset":202736,
			"target":34962
		},
		{
			"buffer":0,
			"byteLength":2988,
			"byteOffset":205724,
			"target":34962
		},
		{
			"buffer":0,
			"byteLength":1992,
			"byteOffset":208712,
			"target":34962
		},
		{
			"buffer":0,
			"byteLength":1992,
			"byteOffset":210704,
			"target":34962
		},
		{
			"buffer":0,
			"byteLength":1992,
			"byteOffset":212696,
			"target":34962
		},
		{
			"buffer":0,
			"byteLength":1992,
			"byteOffset":214688,
			"target":34962
		},
		{
			"buffer":0,
			"byteLength":1992,
			"byteOffset":216680,
			"target":34962
		},
		{
			"buffer":0,
			"byteLength":1992,
			"byteOffset":218672,
			"target":34962
		},
		{
			"buffer":0,
			"byteLength":1992,
			"byteOffset":220664,
			"target":34962
		},
		{
			"buffer":0,
			"byteLength":1992,
			"byteOffset":222656,
			"target":34962
		},
		{
			"buffer":0,
			"byteLength":882,
			"byteOffset":224648,
			"target":34963
		}
	],
	"buffers":[
		{
			"byteLength":225532,
			"uri":"car_01.bin"
		}
	]
}
