{
	"asset":{
		"generator":"Khronos glTF Blender I/O v5.0.21",
		"version":"2.0"
	},
	"extensionsUsed":[
		"KHR_materials_specular"
	],
	"scene":0,
	"scenes":[
		{
			"name":"Scene",
			"nodes":[
				0
			]
		}
	],
	"nodes":[
		{
			"mesh":0,
			"name":"Cube.002",
			"translation":[
				10.78530502319336,
				0,
				0
			]
		}
	],
	"materials":[
		{
			"doubleSided":true,
			"extensions":{
				"KHR_materials_specular":{
					"specularFactor":0
				}
			},
			"name":"Black",
			"pbrMetallicRoughness":{
				"baseColorFactor":[
					0,
					0,
					0,
					1
				],
				"metallicFactor":0,
				"roughnessFactor":0.5
			}
		}
	],
	"meshes":[
		{
			"name":"Cube.002",
			"primitives":[
				{
					"attributes":{
						"POSITION":0,
						"NORMAL":1,
						"TEXCOORD_0":2
					},
					"indices":3,
					"material":0
				},
				{
					"attributes":{
						"POSITION":4,
						"NORMAL":5,
						"TEXCOORD_0":6
					},
					"indices":7
				}
			]
		}
	],
	"accessors":[
		{
			"bufferView":0,
			"componentType":5126,
			"count":64,
			"max":[
				9.670309066772461,
				0.03836730867624283,
				1.2000000476837158
			],
			"min":[
				-16.924039840698242,
				-0.03877533972263336,
				-1.2000000476837158
			],
			"type":"VEC3"
		},
		{
			"bufferView":1,
			"componentType":5126,
			"count":64,
			"type":"VEC3"
		},
		{
			"bufferView":2,
			"componentType":5126,
			"count":64,
			"type":"VEC2"
		},
		{
			"bufferView":3,
			"componentType":5123,
			"count":120,
			"type":"SCALAR"
		},
		{
			"bufferView":4,
			"componentType":5126,
			"count":32,
			"max":[
				9.469432830810547,
				0.013889404013752937,
				1.1000001430511475
			],
			"min":[
				-16.723478317260742,
				-0.013073338195681572,
				-1.1000001430511475
			],
			"type":"VEC3"
		},
		{
			"bufferView":5,
			"componentType":5126,
			"count":32,
			"type":"VEC3"
		},
		{
			"bufferView":6,
			"componentType":5126,
			"count":32,
			"type":"VEC2"
		},
		{
			"bufferView":7,
			"componentType":5123,
			"count":60,
			"type":"SCALAR"
		}
	],
	"bufferViews":[
		{
			"buffer":0,
			"byteLength":768,
			"byteOffset":0,
			"target":34962
		},
		{
			"buffer":0,
			"byteLength":768,
			"byteOffset":768,
			"target":34962
		},
		{
			"buffer":0,
			"byteLength":512,
			"byteOffset":1536,
			"target":34962
		},
		{
			"buffer":0,
			"byteLength":240,
			"byteOffset":2048,
			"target":34963
		},
		{
			"buffer":0,
			"byteLength":384,
			"byteOffset":2288,
			"target":34962
		},
		{
			"buffer":0,
			"byteLength":384,
			"byteOffset":2672,
			"target":34962
		},
		{
			"buffer":0,
			"byteLength":256,
			"byteOffset":3056,
			"target":34962
		},
		{
			"buffer":0,
			"byteLength":120,
			"byteOffset":3312,
			"target":34963
		}
	],
	"buffers":[
		{
			"byteLength":3432,
			"uri":"dialogue_container.bin"
		}
	]
}
