{
	"asset":{
		"generator":"Khronos glTF Blender I/O v4.5.48",
		"version":"2.0"
	},
	"scene":0,
	"scenes":[
		{
			"name":"Scene",
			"nodes":[
				0
			]
		}
	],
	"nodes":[
		{
			"mesh":0,
			"name":"Curve",
			"scale":[
				5.052231788635254,
				5.052231788635254,
				5.052231788635254
			]
		}
	],
	"meshes":[
		{
			"name":"Curve",
			"primitives":[
				{
					"attributes":{
						"POSITION":0,
						"NORMAL":1,
						"TEXCOORD_0":2
					},
					"indices":3
				},
				{
					"attributes":{
						"POSITION":4,
						"NORMAL":5,
						"TEXCOORD_0":6
					},
					"indices":7
				}
			]
		}
	],
	"accessors":[
		{
			"bufferView":0,
			"componentType":5126,
			"count":591,
			"max":[
				0.029114747419953346,
				0.0010000000474974513,
				0.03591862693428993
			],
			"min":[
				-0.03350946679711342,
				-0.0010000000474974513,
				-0.016293948516249657
			],
			"type":"VEC3"
		},
		{
			"bufferView":1,
			"componentType":5126,
			"count":591,
			"type":"VEC3"
		},
		{
			"bufferView":2,
			"componentType":5126,
			"count":591,
			"type":"VEC2"
		},
		{
			"bufferView":3,
			"componentType":5123,
			"count":1731,
			"type":"SCALAR"
		},
		{
			"bufferView":4,
			"componentType":5126,
			"count":64,
			"max":[
				0.029114747419953346,
				0.0010000000474974513,
				0.03591620549559593
			],
			"min":[
				-0.0032089289743453264,
				0.0010000000474974513,
				-0.005692815408110619
			],
			"type":"VEC3"
		},
		{
			"bufferView":5,
			"componentType":5126,
			"count":64,
			"type":"VEC3"
		},
		{
			"bufferView":6,
			"componentType":5126,
			"count":64,
			"type":"VEC2"
		},
		{
			"bufferView":7,
			"componentType":5123,
			"count":183,
			"type":"SCALAR"
		}
	],
	"bufferViews":[
		{
			"buffer":0,
			"byteLength":7092,
			"byteOffset":0,
			"target":34962
		},
		{
			"buffer":0,
			"byteLength":7092,
			"byteOffset":7092,
			"target":34962
		},
		{
			"buffer":0,
			"byteLength":4728,
			"byteOffset":14184,
			"target":34962
		},
		{
			"buffer":0,
			"byteLength":3462,
			"byteOffset":18912,
			"target":34963
		},
		{
			"buffer":0,
			"byteLength":768,
			"byteOffset":22376,
			"target":34962
		},
		{
			"buffer":0,
			"byteLength":768,
			"byteOffset":23144,
			"target":34962
		},
		{
			"buffer":0,
			"byteLength":512,
			"byteOffset":23912,
			"target":34962
		},
		{
			"buffer":0,
			"byteLength":366,
			"byteOffset":24424,
			"target":34963
		}
	],
	"buffers":[
		{
			"byteLength":24792,
			"uri":"heart.bin"
		}
	]
}
