{
	"asset":{
		"generator":"Khronos glTF Blender I/O v4.5.48",
		"version":"2.0"
	},
	"scene":0,
	"scenes":[
		{
			"name":"Scene",
			"nodes":[
				0,
				1
			]
		}
	],
	"nodes":[
		{
			"mesh":0,
			"name":"health_cont",
			"rotation":[
				0,
				-0.0915016233921051,
				0,
				0.995805025100708
			],
			"scale":[
				1,
				0.01207936555147171,
				1
			],
			"translation":[
				-0.9046100378036499,
				-0.0029113045893609524,
				-0.12745971977710724
			]
		},
		{
			"mesh":1,
			"name":"tribal_02",
			"rotation":[
				0.030843591317534447,
				0.7064337730407715,
				-0.7064338326454163,
				0.030843589454889297
			],
			"scale":[
				100.57604217529297,
				100.57604217529297,
				100.57604217529297
			],
			"translation":[
				-1.6797230243682861,
				-0.04916423559188843,
				-0.5373206734657288
			]
		}
	],
	"meshes":[
		{
			"name":"health_bar",
			"primitives":[
				{
					"attributes":{
						"POSITION":0,
						"NORMAL":1,
						"TEXCOORD_0":2
					},
					"indices":3
				},
				{
					"attributes":{
						"POSITION":4,
						"NORMAL":5,
						"TEXCOORD_0":6
					},
					"indices":7
				},
				{
					"attributes":{
						"POSITION":8,
						"NORMAL":9,
						"TEXCOORD_0":10
					},
					"indices":11
				}
			]
		},
		{
			"name":"Curve.026",
			"primitives":[
				{
					"attributes":{
						"POSITION":12,
						"NORMAL":13,
						"TEXCOORD_0":14
					},
					"indices":15
				}
			]
		}
	],
	"accessors":[
		{
			"bufferView":0,
			"componentType":5126,
			"count":10,
			"max":[
				1.7857929468154907,
				0.9910147190093994,
				0.22324059903621674
			],
			"min":[
				-0.1058771163225174,
				-1.0089852809906006,
				-0.23781712353229523
			],
			"type":"VEC3"
		},
		{
			"bufferView":1,
			"componentType":5126,
			"count":10,
			"type":"VEC3"
		},
		{
			"bufferView":2,
			"componentType":5126,
			"count":10,
			"type":"VEC2"
		},
		{
			"bufferView":3,
			"componentType":5123,
			"count":18,
			"type":"SCALAR"
		},
		{
			"bufferView":4,
			"componentType":5126,
			"count":48,
			"max":[
				1.7857929468154907,
				0.9910147190093994,
				0.22324059903621674
			],
			"min":[
				-0.21420717239379883,
				-1.0089852809906006,
				-0.23781712353229523
			],
			"type":"VEC3"
		},
		{
			"bufferView":5,
			"componentType":5126,
			"count":48,
			"type":"VEC3"
		},
		{
			"bufferView":6,
			"componentType":5126,
			"count":48,
			"type":"VEC2"
		},
		{
			"bufferView":7,
			"componentType":5123,
			"count":114,
			"type":"SCALAR"
		},
		{
			"bufferView":8,
			"componentType":5126,
			"count":8,
			"max":[
				1.718610167503357,
				0.9910147190093994,
				0.20093102753162384
			],
			"min":[
				-0.14344704151153564,
				0.9910147190093994,
				-0.2084065079689026
			],
			"type":"VEC3"
		},
		{
			"bufferView":9,
			"componentType":5126,
			"count":8,
			"type":"VEC3"
		},
		{
			"bufferView":10,
			"componentType":5126,
			"count":8,
			"type":"VEC2"
		},
		{
			"bufferView":11,
			"componentType":5123,
			"count":24,
			"type":"SCALAR"
		},
		{
			"bufferView":12,
			"componentType":5126,
			"count":954,
			"max":[
				0.0034890109673142433,
				0.00429835170507431,
				0.00029231669032014906
			],
			"min":[
				-0.01796160638332367,
				-0.013781429268419743,
				-0.00030768412398174405
			],
			"type":"VEC3"
		},
		{
			"bufferView":13,
			"componentType":5126,
			"count":954,
			"type":"VEC3"
		},
		{
			"bufferView":14,
			"componentType":5126,
			"count":954,
			"type":"VEC2"
		},
		{
			"bufferView":15,
			"componentType":5123,
			"count":2844,
			"type":"SCALAR"
		}
	],
	"bufferViews":[
		{
			"buffer":0,
			"byteLength":120,
			"byteOffset":0,
			"target":34962
		},
		{
			"buffer":0,
			"byteLength":120,
			"byteOffset":120,
			"target":34962
		},
		{
			"buffer":0,
			"byteLength":80,
			"byteOffset":240,
			"target":34962
		},
		{
			"buffer":0,
			"byteLength":36,
			"byteOffset":320,
			"target":34963
		},
		{
			"buffer":0,
			"byteLength":576,
			"byteOffset":356,
			"target":34962
		},
		{
			"buffer":0,
			"byteLength":576,
			"byteOffset":932,
			"target":34962
		},
		{
			"buffer":0,
			"byteLength":384,
			"byteOffset":1508,
			"target":34962
		},
		{
			"buffer":0,
			"byteLength":228,
			"byteOffset":1892,
			"target":34963
		},
		{
			"buffer":0,
			"byteLength":96,
			"byteOffset":2120,
			"target":34962
		},
		{
			"buffer":0,
			"byteLength":96,
			"byteOffset":2216,
			"target":34962
		},
		{
			"buffer":0,
			"byteLength":64,
			"byteOffset":2312,
			"target":34962
		},
		{
			"buffer":0,
			"byteLength":48,
			"byteOffset":2376,
			"target":34963
		},
		{
			"buffer":0,
			"byteLength":11448,
			"byteOffset":2424,
			"target":34962
		},
		{
			"buffer":0,
			"byteLength":11448,
			"byteOffset":13872,
			"target":34962
		},
		{
			"buffer":0,
			"byteLength":7632,
			"byteOffset":25320,
			"target":34962
		},
		{
			"buffer":0,
			"byteLength":5688,
			"byteOffset":32952,
			"target":34963
		}
	],
	"buffers":[
		{
			"byteLength":38640,
			"uri":"ui_elemet_02.bin"
		}
	]
}
