{
	"asset":{
		"generator":"Khronos glTF Blender I/O v4.5.48",
		"version":"2.0"
	},
	"scene":0,
	"scenes":[
		{
			"name":"Scene",
			"nodes":[
				0,
				1,
				2
			]
		}
	],
	"nodes":[
		{
			"mesh":0,
			"name":"top_cont",
			"rotation":[
				0,
				0.09338805824518204,
				0,
				0.9956297874450684
			],
			"scale":[
				1,
				0.01207936555147171,
				1
			],
			"translation":[
				0.7659626007080078,
				-0.018933342769742012,
				-0.35577571392059326
			]
		},
		{
			"mesh":1,
			"name":"tribal_01",
			"rotation":[
				0.6596654057502747,
				0.2546401023864746,
				-0.2546401023864746,
				0.6596654057502747
			],
			"scale":[
				103.16622161865234,
				103.16622161865234,
				103.16621398925781
			],
			"translation":[
				1.3349688053131104,
				-0.05954083800315857,
				-0.04953095316886902
			]
		},
		{
			"mesh":2,
			"name":"bottom_cont",
			"rotation":[
				-0.13670630753040314,
				0,
				-0.9906116724014282,
				7.478909225255848e-08
			],
			"scale":[
				-0.9999999403953552,
				-0.01207936555147171,
				-0.9999999403953552
			],
			"translation":[
				0.9439032077789307,
				-0.02052433229982853,
				0.13073556125164032
			]
		}
	],
	"meshes":[
		{
			"name":"Cube.009",
			"primitives":[
				{
					"attributes":{
						"POSITION":0,
						"NORMAL":1,
						"TEXCOORD_0":2
					},
					"indices":3
				},
				{
					"attributes":{
						"POSITION":4,
						"NORMAL":5,
						"TEXCOORD_0":6
					},
					"indices":7
				},
				{
					"attributes":{
						"POSITION":8,
						"NORMAL":9,
						"TEXCOORD_0":10
					},
					"indices":11
				}
			]
		},
		{
			"name":"Curve.001",
			"primitives":[
				{
					"attributes":{
						"POSITION":12,
						"NORMAL":13,
						"TEXCOORD_0":14
					},
					"indices":15
				}
			]
		},
		{
			"name":"Cube.013",
			"primitives":[
				{
					"attributes":{
						"POSITION":16,
						"NORMAL":17,
						"TEXCOORD_0":18
					},
					"indices":3
				},
				{
					"attributes":{
						"POSITION":19,
						"NORMAL":20,
						"TEXCOORD_0":21
					},
					"indices":7
				},
				{
					"attributes":{
						"POSITION":22,
						"NORMAL":23,
						"TEXCOORD_0":24
					},
					"indices":11
				}
			]
		}
	],
	"accessors":[
		{
			"bufferView":0,
			"componentType":5126,
			"count":10,
			"max":[
				0.22271829843521118,
				0.9030543565750122,
				0.21830877661705017
			],
			"min":[
				-1.6440069675445557,
				-1.0969456434249878,
				-0.2427489310503006
			],
			"type":"VEC3"
		},
		{
			"bufferView":1,
			"componentType":5126,
			"count":10,
			"type":"VEC3"
		},
		{
			"bufferView":2,
			"componentType":5126,
			"count":10,
			"type":"VEC2"
		},
		{
			"bufferView":3,
			"componentType":5123,
			"count":18,
			"type":"SCALAR"
		},
		{
			"bufferView":4,
			"componentType":5126,
			"count":48,
			"max":[
				0.22271829843521118,
				0.9030543565750122,
				0.21830877661705017
			],
			"min":[
				-1.7772817611694336,
				-1.0969456434249878,
				-0.2427489310503006
			],
			"type":"VEC3"
		},
		{
			"bufferView":5,
			"componentType":5126,
			"count":48,
			"type":"VEC3"
		},
		{
			"bufferView":6,
			"componentType":5126,
			"count":48,
			"type":"VEC2"
		},
		{
			"bufferView":7,
			"componentType":5123,
			"count":114,
			"type":"SCALAR"
		},
		{
			"bufferView":8,
			"componentType":5126,
			"count":8,
			"max":[
				0.1555355191230774,
				0.9030543565750122,
				0.19599922001361847
			],
			"min":[
				-1.70652174949646,
				0.9030543565750122,
				-0.21333831548690796
			],
			"type":"VEC3"
		},
		{
			"bufferView":9,
			"componentType":5126,
			"count":8,
			"type":"VEC3"
		},
		{
			"bufferView":10,
			"componentType":5126,
			"count":8,
			"type":"VEC2"
		},
		{
			"bufferView":11,
			"componentType":5123,
			"count":24,
			"type":"SCALAR"
		},
		{
			"bufferView":12,
			"componentType":5126,
			"count":2191,
			"max":[
				0.004072991665452719,
				0.004642672371119261,
				0.0003163066285196692
			],
			"min":[
				-0.016643645241856575,
				-0.009759603068232536,
				-0.0002609726507216692
			],
			"type":"VEC3"
		},
		{
			"bufferView":13,
			"componentType":5126,
			"count":2191,
			"type":"VEC3"
		},
		{
			"bufferView":14,
			"componentType":5126,
			"count":2191,
			"type":"VEC2"
		},
		{
			"bufferView":15,
			"componentType":5123,
			"count":6558,
			"type":"SCALAR"
		},
		{
			"bufferView":16,
			"componentType":5126,
			"count":10,
			"max":[
				0.16493511199951172,
				0.9555153846740723,
				0.2812887132167816
			],
			"min":[
				-1.7017900943756104,
				-1.0444846153259277,
				-0.17976899445056915
			],
			"type":"VEC3"
		},
		{
			"bufferView":17,
			"componentType":5126,
			"count":10,
			"type":"VEC3"
		},
		{
			"bufferView":18,
			"componentType":5126,
			"count":10,
			"type":"VEC2"
		},
		{
			"bufferView":19,
			"componentType":5126,
			"count":48,
			"max":[
				0.16493511199951172,
				0.9555153846740723,
				0.2812887132167816
			],
			"min":[
				-1.8350648880004883,
				-1.0444846153259277,
				-0.17976899445056915
			],
			"type":"VEC3"
		},
		{
			"bufferView":20,
			"componentType":5126,
			"count":48,
			"type":"VEC3"
		},
		{
			"bufferView":21,
			"componentType":5126,
			"count":48,
			"type":"VEC2"
		},
		{
			"bufferView":22,
			"componentType":5126,
			"count":8,
			"max":[
				0.0977523922920227,
				0.9555153846740723,
				0.2589791417121887
			],
			"min":[
				-1.7643048763275146,
				0.9555153846740723,
				-0.1503583788871765
			],
			"type":"VEC3"
		},
		{
			"bufferView":23,
			"componentType":5126,
			"count":8,
			"type":"VEC3"
		},
		{
			"bufferView":24,
			"componentType":5126,
			"count":8,
			"type":"VEC2"
		}
	],
	"bufferViews":[
		{
			"buffer":0,
			"byteLength":120,
			"byteOffset":0,
			"target":34962
		},
		{
			"buffer":0,
			"byteLength":120,
			"byteOffset":120,
			"target":34962
		},
		{
			"buffer":0,
			"byteLength":80,
			"byteOffset":240,
			"target":34962
		},
		{
			"buffer":0,
			"byteLength":36,
			"byteOffset":320,
			"target":34963
		},
		{
			"buffer":0,
			"byteLength":576,
			"byteOffset":356,
			"target":34962
		},
		{
			"buffer":0,
			"byteLength":576,
			"byteOffset":932,
			"target":34962
		},
		{
			"buffer":0,
			"byteLength":384,
			"byteOffset":1508,
			"target":34962
		},
		{
			"buffer":0,
			"byteLength":228,
			"byteOffset":1892,
			"target":34963
		},
		{
			"buffer":0,
			"byteLength":96,
			"byteOffset":2120,
			"target":34962
		},
		{
			"buffer":0,
			"byteLength":96,
			"byteOffset":2216,
			"target":34962
		},
		{
			"buffer":0,
			"byteLength":64,
			"byteOffset":2312,
			"target":34962
		},
		{
			"buffer":0,
			"byteLength":48,
			"byteOffset":2376,
			"target":34963
		},
		{
			"buffer":0,
			"byteLength":26292,
			"byteOffset":2424,
			"target":34962
		},
		{
			"buffer":0,
			"byteLength":26292,
			"byteOffset":28716,
			"target":34962
		},
		{
			"buffer":0,
			"byteLength":17528,
			"byteOffset":55008,
			"target":34962
		},
		{
			"buffer":0,
			"byteLength":13116,
			"byteOffset":72536,
			"target":34963
		},
		{
			"buffer":0,
			"byteLength":120,
			"byteOffset":85652,
			"target":34962
		},
		{
			"buffer":0,
			"byteLength":120,
			"byteOffset":85772,
			"target":34962
		},
		{
			"buffer":0,
			"byteLength":80,
			"byteOffset":85892,
			"target":34962
		},
		{
			"buffer":0,
			"byteLength":576,
			"byteOffset":85972,
			"target":34962
		},
		{
			"buffer":0,
			"byteLength":576,
			"byteOffset":86548,
			"target":34962
		},
		{
			"buffer":0,
			"byteLength":384,
			"byteOffset":87124,
			"target":34962
		},
		{
			"buffer":0,
			"byteLength":96,
			"byteOffset":87508,
			"target":34962
		},
		{
			"buffer":0,
			"byteLength":96,
			"byteOffset":87604,
			"target":34962
		},
		{
			"buffer":0,
			"byteLength":64,
			"byteOffset":87700,
			"target":34962
		}
	],
	"buffers":[
		{
			"byteLength":87764,
			"uri":"ui_elemet_01.bin"
		}
	]
}
