{
	"asset":{
		"generator":"Khronos glTF Blender I/O v4.5.48",
		"version":"2.0"
	},
	"extensionsUsed":[
		"KHR_materials_specular"
	],
	"scene":0,
	"scenes":[
		{
			"name":"Scene",
			"nodes":[
				0,
				1
			]
		}
	],
	"nodes":[
		{
			"mesh":0,
			"name":"fret_button",
			"translation":[
				0,
				0.0049739256501197815,
				0
			]
		},
		{
			"mesh":1,
			"name":"fret_button_top",
			"translation":[
				0,
				0.025692421942949295,
				0
			]
		}
	],
	"materials":[
		{
			"doubleSided":true,
			"extensions":{
				"KHR_materials_specular":{
					"specularFactor":0
				}
			},
			"name":"Black_No_Spec",
			"pbrMetallicRoughness":{
				"baseColorFactor":[
					0,
					0,
					0,
					1
				],
				"metallicFactor":0,
				"roughnessFactor":0.5
			}
		}
	],
	"meshes":[
		{
			"name":"Cube.001",
			"primitives":[
				{
					"attributes":{
						"POSITION":0,
						"NORMAL":1,
						"TEXCOORD_0":2
					},
					"indices":3
				},
				{
					"attributes":{
						"POSITION":4,
						"NORMAL":5,
						"TEXCOORD_0":6
					},
					"indices":7
				},
				{
					"attributes":{
						"POSITION":8,
						"NORMAL":9,
						"TEXCOORD_0":10
					},
					"indices":11,
					"material":0
				}
			]
		},
		{
			"name":"Cube.002",
			"primitives":[
				{
					"attributes":{
						"POSITION":12,
						"NORMAL":13,
						"TEXCOORD_0":14
					},
					"indices":15
				},
				{
					"attributes":{
						"POSITION":16,
						"NORMAL":17,
						"TEXCOORD_0":18
					},
					"indices":19,
					"material":0
				}
			]
		}
	],
	"accessors":[
		{
			"bufferView":0,
			"componentType":5126,
			"count":144,
			"max":[
				0.4695802628993988,
				0.009214762598276138,
				0.4695802628993988
			],
			"min":[
				-0.4695802628993988,
				-0.10162357985973358,
				-0.4695802628993988
			],
			"type":"VEC3"
		},
		{
			"bufferView":1,
			"componentType":5126,
			"count":144,
			"type":"VEC3"
		},
		{
			"bufferView":2,
			"componentType":5126,
			"count":144,
			"type":"VEC2"
		},
		{
			"bufferView":3,
			"componentType":5123,
			"count":234,
			"type":"SCALAR"
		},
		{
			"bufferView":4,
			"componentType":5126,
			"count":44,
			"max":[
				0.3671761453151703,
				0.006931323558092117,
				0.3671761453151703
			],
			"min":[
				-0.3671761453151703,
				0.004677291959524155,
				-0.3671761453151703
			],
			"type":"VEC3"
		},
		{
			"bufferView":5,
			"componentType":5126,
			"count":44,
			"type":"VEC3"
		},
		{
			"bufferView":6,
			"componentType":5126,
			"count":44,
			"type":"VEC2"
		},
		{
			"bufferView":7,
			"componentType":5123,
			"count":84,
			"type":"SCALAR"
		},
		{
			"bufferView":8,
			"componentType":5126,
			"count":168,
			"max":[
				0.4695802628993988,
				0.009214762598276138,
				0.4695802628993988
			],
			"min":[
				-0.4695802628993988,
				-0.10162357985973358,
				-0.4695802628993988
			],
			"type":"VEC3"
		},
		{
			"bufferView":9,
			"componentType":5126,
			"count":168,
			"type":"VEC3"
		},
		{
			"bufferView":10,
			"componentType":5126,
			"count":168,
			"type":"VEC2"
		},
		{
			"bufferView":11,
			"componentType":5123,
			"count":216,
			"type":"SCALAR"
		},
		{
			"bufferView":12,
			"componentType":5126,
			"count":36,
			"max":[
				0.20976518094539642,
				0.01604120433330536,
				0.20976518094539642
			],
			"min":[
				-0.20976518094539642,
				-0.013787172734737396,
				-0.20976518094539642
			],
			"type":"VEC3"
		},
		{
			"bufferView":13,
			"componentType":5126,
			"count":36,
			"type":"VEC3"
		},
		{
			"bufferView":14,
			"componentType":5126,
			"count":36,
			"type":"VEC2"
		},
		{
			"bufferView":15,
			"componentType":5123,
			"count":54,
			"type":"SCALAR"
		},
		{
			"bufferView":16,
			"componentType":5126,
			"count":56,
			"max":[
				0.21454671025276184,
				0.01604120433330536,
				0.21454671025276184
			],
			"min":[
				-0.21454671025276184,
				-0.01604120433330536,
				-0.21454671025276184
			],
			"type":"VEC3"
		},
		{
			"bufferView":17,
			"componentType":5126,
			"count":56,
			"type":"VEC3"
		},
		{
			"bufferView":18,
			"componentType":5126,
			"count":56,
			"type":"VEC2"
		},
		{
			"bufferView":19,
			"componentType":5123,
			"count":72,
			"type":"SCALAR"
		}
	],
	"bufferViews":[
		{
			"buffer":0,
			"byteLength":1728,
			"byteOffset":0,
			"target":34962
		},
		{
			"buffer":0,
			"byteLength":1728,
			"byteOffset":1728,
			"target":34962
		},
		{
			"buffer":0,
			"byteLength":1152,
			"byteOffset":3456,
			"target":34962
		},
		{
			"buffer":0,
			"byteLength":468,
			"byteOffset":4608,
			"target":34963
		},
		{
			"buffer":0,
			"byteLength":528,
			"byteOffset":5076,
			"target":34962
		},
		{
			"buffer":0,
			"byteLength":528,
			"byteOffset":5604,
			"target":34962
		},
		{
			"buffer":0,
			"byteLength":352,
			"byteOffset":6132,
			"target":34962
		},
		{
			"buffer":0,
			"byteLength":168,
			"byteOffset":6484,
			"target":34963
		},
		{
			"buffer":0,
			"byteLength":2016,
			"byteOffset":6652,
			"target":34962
		},
		{
			"buffer":0,
			"byteLength":2016,
			"byteOffset":8668,
			"target":34962
		},
		{
			"buffer":0,
			"byteLength":1344,
			"byteOffset":10684,
			"target":34962
		},
		{
			"buffer":0,
			"byteLength":432,
			"byteOffset":12028,
			"target":34963
		},
		{
			"buffer":0,
			"byteLength":432,
			"byteOffset":12460,
			"target":34962
		},
		{
			"buffer":0,
			"byteLength":432,
			"byteOffset":12892,
			"target":34962
		},
		{
			"buffer":0,
			"byteLength":288,
			"byteOffset":13324,
			"target":34962
		},
		{
			"buffer":0,
			"byteLength":108,
			"byteOffset":13612,
			"target":34963
		},
		{
			"buffer":0,
			"byteLength":672,
			"byteOffset":13720,
			"target":34962
		},
		{
			"buffer":0,
			"byteLength":672,
			"byteOffset":14392,
			"target":34962
		},
		{
			"buffer":0,
			"byteLength":448,
			"byteOffset":15064,
			"target":34962
		},
		{
			"buffer":0,
			"byteLength":144,
			"byteOffset":15512,
			"target":34963
		}
	],
	"buffers":[
		{
			"byteLength":15656,
			"uri":"fret_button.bin"
		}
	]
}
