{
	"asset":{
		"generator":"Khronos glTF Blender I/O v5.0.21",
		"version":"2.0"
	},
	"scene":0,
	"scenes":[
		{
			"name":"Scene",
			"nodes":[
				0
			]
		}
	],
	"nodes":[
		{
			"mesh":0,
			"name":"logo_full",
			"rotation":[
				0,
				0.7071068286895752,
				0,
				0.7071068286895752
			],
			"scale":[
				12.557437896728516,
				12.557437896728516,
				12.557437896728516
			]
		}
	],
	"meshes":[
		{
			"name":"logo_full",
			"primitives":[
				{
					"attributes":{
						"POSITION":0,
						"NORMAL":1,
						"TEXCOORD_0":2
					},
					"indices":3
				}
			]
		}
	],
	"accessors":[
		{
			"bufferView":0,
			"componentType":5126,
			"count":4234,
			"max":[
				0.05871019884943962,
				0.0010000000474974513,
				0.014662304893136024
			],
			"min":[
				-0.08538784086704254,
				-0.0010000000474974513,
				-0.012537740170955658
			],
			"type":"VEC3"
		},
		{
			"bufferView":1,
			"componentType":5126,
			"count":4234,
			"type":"VEC3"
		},
		{
			"bufferView":2,
			"componentType":5126,
			"count":4234,
			"type":"VEC2"
		},
		{
			"bufferView":3,
			"componentType":5123,
			"count":12216,
			"type":"SCALAR"
		}
	],
	"bufferViews":[
		{
			"buffer":0,
			"byteLength":50808,
			"byteOffset":0,
			"target":34962
		},
		{
			"buffer":0,
			"byteLength":50808,
			"byteOffset":50808,
			"target":34962
		},
		{
			"buffer":0,
			"byteLength":33872,
			"byteOffset":101616,
			"target":34962
		},
		{
			"buffer":0,
			"byteLength":24432,
			"byteOffset":135488,
			"target":34963
		}
	],
	"buffers":[
		{
			"byteLength":159920,
			"uri":"logo_full.bin"
		}
	]
}
