{
	"asset":{
		"generator":"Khronos glTF Blender I/O v5.0.21",
		"version":"2.0"
	},
	"extensionsUsed":[
		"KHR_materials_emissive_strength",
		"KHR_materials_specular"
	],
	"scene":0,
	"scenes":[
		{
			"name":"Scene",
			"nodes":[
				0,
				1,
				2,
				3,
				4,
				5
			]
		}
	],
	"nodes":[
		{
			"mesh":0,
			"name":"bottom",
			"rotation":[
				0,
				1,
				0,
				1.9470718370939721e-07
			],
			"translation":[
				0.0929645374417305,
				0.3807945251464844,
				-0.012200099416077137
			]
		},
		{
			"mesh":1,
			"name":"bridge arch",
			"translation":[
				2.1457642560562817e-06,
				6.585097789764404,
				-6.60218283883296e-05
			]
		},
		{
			"mesh":2,
			"name":"bridge arch support stones",
			"translation":[
				0,
				0.3425673842430115,
				0.0059578572399914265
			]
		},
		{
			"mesh":3,
			"name":"streetlamps",
			"translation":[
				2.0265579223632812e-06,
				2.257408857345581,
				-1.64310622215271
			]
		},
		{
			"mesh":4,
			"name":"support beams",
			"translation":[
				1.569579839706421,
				4.023766040802002,
				0
			]
		},
		{
			"mesh":5,
			"name":"fence",
			"scale":[
				0.0545550175011158,
				0.29263830184936523,
				0.0338582880795002
			],
			"translation":[
				2.041637659072876,
				0.612605631351471,
				-20.1993408203125
			]
		}
	],
	"materials":[
		{
			"doubleSided":true,
			"extensions":{
				"KHR_materials_specular":{
					"specularFactor":0
				}
			},
			"name":"Dark Blue",
			"pbrMetallicRoughness":{
				"baseColorFactor":[
					0.004329681396484375,
					0.003238677978515625,
					0.03912353515625,
					1
				],
				"metallicFactor":0,
				"roughnessFactor":0.5
			}
		},
		{
			"doubleSided":true,
			"emissiveFactor":[
				0.8886282444000244,
				1,
				0.8336970806121826
			],
			"extensions":{
				"KHR_materials_emissive_strength":{
					"emissiveStrength":1.399999976158142
				}
			},
			"name":"Emissive_test_01",
			"pbrMetallicRoughness":{
				"baseColorFactor":[
					0,
					0,
					0,
					1
				]
			}
		}
	],
	"meshes":[
		{
			"name":"bottom",
			"primitives":[
				{
					"attributes":{
						"POSITION":0,
						"NORMAL":1,
						"TEXCOORD_0":2
					},
					"indices":3
				}
			]
		},
		{
			"name":"bridge arch",
			"primitives":[
				{
					"attributes":{
						"POSITION":4,
						"NORMAL":5,
						"TEXCOORD_0":6
					},
					"indices":7
				}
			]
		},
		{
			"name":"bridge arch support stones",
			"primitives":[
				{
					"attributes":{
						"POSITION":8,
						"NORMAL":9,
						"TEXCOORD_0":10
					},
					"indices":11
				}
			]
		},
		{
			"name":"streetlamps",
			"primitives":[
				{
					"attributes":{
						"POSITION":12,
						"NORMAL":13,
						"TEXCOORD_0":14
					},
					"indices":15,
					"material":0
				},
				{
					"attributes":{
						"POSITION":16,
						"NORMAL":17,
						"TEXCOORD_0":18
					},
					"indices":19,
					"material":1
				}
			]
		},
		{
			"name":"support beams",
			"primitives":[
				{
					"attributes":{
						"POSITION":20,
						"NORMAL":21,
						"TEXCOORD_0":22
					},
					"indices":23
				}
			]
		},
		{
			"name":"fence",
			"primitives":[
				{
					"attributes":{
						"POSITION":24,
						"NORMAL":25,
						"TEXCOORD_0":26
					},
					"indices":27
				}
			]
		}
	],
	"accessors":[
		{
			"bufferView":0,
			"componentType":5126,
			"count":502,
			"max":[
				2.2365880012512207,
				0.06927073001861572,
				20.28791618347168
			],
			"min":[
				-2.050665855407715,
				-0.38079458475112915,
				-20.312314987182617
			],
			"type":"VEC3"
		},
		{
			"bufferView":1,
			"componentType":5126,
			"count":502,
			"type":"VEC3"
		},
		{
			"bufferView":2,
			"componentType":5126,
			"count":502,
			"type":"VEC2"
		},
		{
			"bufferView":3,
			"componentType":5123,
			"count":942,
			"type":"SCALAR"
		},
		{
			"bufferView":4,
			"componentType":5126,
			"count":576,
			"max":[
				1.8979284763336182,
				4.101888656616211,
				19.765850067138672
			],
			"min":[
				1.213065505027771,
				-6.2177300453186035,
				-19.764535903930664
			],
			"type":"VEC3"
		},
		{
			"bufferView":5,
			"componentType":5126,
			"count":576,
			"type":"VEC3"
		},
		{
			"bufferView":6,
			"componentType":5126,
			"count":576,
			"type":"VEC2"
		},
		{
			"bufferView":7,
			"componentType":5123,
			"count":1734,
			"type":"SCALAR"
		},
		{
			"bufferView":8,
			"componentType":5126,
			"count":343,
			"max":[
				1.9547107219696045,
				0.5117611885070801,
				20.311384201049805
			],
			"min":[
				1.1871525049209595,
				0.00370481563732028,
				-20.310972213745117
			],
			"type":"VEC3"
		},
		{
			"bufferView":9,
			"componentType":5126,
			"count":343,
			"type":"VEC3"
		},
		{
			"bufferView":10,
			"componentType":5126,
			"count":343,
			"type":"VEC2"
		},
		{
			"bufferView":11,
			"componentType":5123,
			"count":660,
			"type":"SCALAR"
		},
		{
			"bufferView":12,
			"componentType":5126,
			"count":2776,
			"max":[
				1.7494970560073853,
				0.18088112771511078,
				17.514135360717773
			],
			"min":[
				-1.7494972944259644,
				-1.913841724395752,
				-17.51100730895996
			],
			"type":"VEC3"
		},
		{
			"bufferView":13,
			"componentType":5126,
			"count":2776,
			"type":"VEC3"
		},
		{
			"bufferView":14,
			"componentType":5126,
			"count":2776,
			"type":"VEC2"
		},
		{
			"bufferView":15,
			"componentType":5123,
			"count":4155,
			"type":"SCALAR"
		},
		{
			"bufferView":16,
			"componentType":5126,
			"count":362,
			"max":[
				1.077744722366333,
				0.13309335708618164,
				17.47966766357422
			],
			"min":[
				-1.0777523517608643,
				0.1166224479675293,
				-17.47967529296875
			],
			"type":"VEC3"
		},
		{
			"bufferView":17,
			"componentType":5126,
			"count":362,
			"type":"VEC3"
		},
		{
			"bufferView":18,
			"componentType":5126,
			"count":362,
			"type":"VEC2"
		},
		{
			"bufferView":19,
			"componentType":5123,
			"count":540,
			"type":"SCALAR"
		},
		{
			"bufferView":20,
			"componentType":5126,
			"count":440,
			"max":[
				0.01534110214561224,
				6.170582294464111,
				16.412691116333008
			],
			"min":[
				-0.015535842627286911,
				-3.5667061805725098,
				-16.410533905029297
			],
			"type":"VEC3"
		},
		{
			"bufferView":21,
			"componentType":5126,
			"count":440,
			"type":"VEC3"
		},
		{
			"bufferView":22,
			"componentType":5126,
			"count":440,
			"type":"VEC2"
		},
		{
			"bufferView":23,
			"componentType":5123,
			"count":498,
			"type":"SCALAR"
		},
		{
			"bufferView":24,
			"componentType":5126,
			"count":596,
			"max":[
				1,
				1,
				1151
			],
			"min":[
				-1,
				-1,
				-1
			],
			"type":"VEC3"
		},
		{
			"bufferView":25,
			"componentType":5126,
			"count":596,
			"type":"VEC3"
		},
		{
			"bufferView":26,
			"componentType":5126,
			"count":596,
			"type":"VEC2"
		},
		{
			"bufferView":27,
			"componentType":5123,
			"count":912,
			"type":"SCALAR"
		}
	],
	"bufferViews":[
		{
			"buffer":0,
			"byteLength":6024,
			"byteOffset":0,
			"target":34962
		},
		{
			"buffer":0,
			"byteLength":6024,
			"byteOffset":6024,
			"target":34962
		},
		{
			"buffer":0,
			"byteLength":4016,
			"byteOffset":12048,
			"target":34962
		},
		{
			"buffer":0,
			"byteLength":1884,
			"byteOffset":16064,
			"target":34963
		},
		{
			"buffer":0,
			"byteLength":6912,
			"byteOffset":17948,
			"target":34962
		},
		{
			"buffer":0,
			"byteLength":6912,
			"byteOffset":24860,
			"target":34962
		},
		{
			"buffer":0,
			"byteLength":4608,
			"byteOffset":31772,
			"target":34962
		},
		{
			"buffer":0,
			"byteLength":3468,
			"byteOffset":36380,
			"target":34963
		},
		{
			"buffer":0,
			"byteLength":4116,
			"byteOffset":39848,
			"target":34962
		},
		{
			"buffer":0,
			"byteLength":4116,
			"byteOffset":43964,
			"target":34962
		},
		{
			"buffer":0,
			"byteLength":2744,
			"byteOffset":48080,
			"target":34962
		},
		{
			"buffer":0,
			"byteLength":1320,
			"byteOffset":50824,
			"target":34963
		},
		{
			"buffer":0,
			"byteLength":33312,
			"byteOffset":52144,
			"target":34962
		},
		{
			"buffer":0,
			"byteLength":33312,
			"byteOffset":85456,
			"target":34962
		},
		{
			"buffer":0,
			"byteLength":22208,
			"byteOffset":118768,
			"target":34962
		},
		{
			"buffer":0,
			"byteLength":8310,
			"byteOffset":140976,
			"target":34963
		},
		{
			"buffer":0,
			"byteLength":4344,
			"byteOffset":149288,
			"target":34962
		},
		{
			"buffer":0,
			"byteLength":4344,
			"byteOffset":153632,
			"target":34962
		},
		{
			"buffer":0,
			"byteLength":2896,
			"byteOffset":157976,
			"target":34962
		},
		{
			"buffer":0,
			"byteLength":1080,
			"byteOffset":160872,
			"target":34963
		},
		{
			"buffer":0,
			"byteLength":5280,
			"byteOffset":161952,
			"target":34962
		},
		{
			"buffer":0,
			"byteLength":5280,
			"byteOffset":167232,
			"target":34962
		},
		{
			"buffer":0,
			"byteLength":3520,
			"byteOffset":172512,
			"target":34962
		},
		{
			"buffer":0,
			"byteLength":996,
			"byteOffset":176032,
			"target":34963
		},
		{
			"buffer":0,
			"byteLength":7152,
			"byteOffset":177028,
			"target":34962
		},
		{
			"buffer":0,
			"byteLength":7152,
			"byteOffset":184180,
			"target":34962
		},
		{
			"buffer":0,
			"byteLength":4768,
			"byteOffset":191332,
			"target":34962
		},
		{
			"buffer":0,
			"byteLength":1824,
			"byteOffset":196100,
			"target":34963
		}
	],
	"buffers":[
		{
			"byteLength":197924,
			"uri":"bridge.bin"
		}
	]
}
