{
	"asset":{
		"generator":"Khronos glTF Blender I/O v5.0.21",
		"version":"2.0"
	},
	"scene":0,
	"scenes":[
		{
			"name":"Scene",
			"nodes":[
				0
			]
		}
	],
	"nodes":[
		{
			"mesh":0,
			"name":"editor_icon",
			"translation":[
				0,
				7.01932076481171e-05,
				0
			]
		}
	],
	"meshes":[
		{
			"name":"editor_icon",
			"primitives":[
				{
					"attributes":{
						"POSITION":0,
						"NORMAL":1,
						"TEXCOORD_0":2
					},
					"indices":3
				}
			]
		}
	],
	"accessors":[
		{
			"bufferView":0,
			"componentType":5126,
			"count":1625,
			"max":[
				0.6257471442222595,
				0.08222401887178421,
				0.5795201659202576
			],
			"min":[
				-0.5296846628189087,
				-0.0823272168636322,
				-0.6129931807518005
			],
			"type":"VEC3"
		},
		{
			"bufferView":1,
			"componentType":5126,
			"count":1625,
			"type":"VEC3"
		},
		{
			"bufferView":2,
			"componentType":5126,
			"count":1625,
			"type":"VEC2"
		},
		{
			"bufferView":3,
			"componentType":5123,
			"count":4755,
			"type":"SCALAR"
		}
	],
	"bufferViews":[
		{
			"buffer":0,
			"byteLength":19500,
			"byteOffset":0,
			"target":34962
		},
		{
			"buffer":0,
			"byteLength":19500,
			"byteOffset":19500,
			"target":34962
		},
		{
			"buffer":0,
			"byteLength":13000,
			"byteOffset":39000,
			"target":34962
		},
		{
			"buffer":0,
			"byteLength":9510,
			"byteOffset":52000,
			"target":34963
		}
	],
	"buffers":[
		{
			"byteLength":61512,
			"uri":"editor_icon.bin"
		}
	]
}
