{
	"asset":{
		"generator":"Khronos glTF Blender I/O v5.0.21",
		"version":"2.0"
	},
	"scene":0,
	"scenes":[
		{
			"name":"Scene",
			"nodes":[
				0
			]
		}
	],
	"nodes":[
		{
			"mesh":0,
			"name":"exit_icon"
		}
	],
	"meshes":[
		{
			"name":"exit_icon",
			"primitives":[
				{
					"attributes":{
						"POSITION":0,
						"NORMAL":1,
						"TEXCOORD_0":2
					},
					"indices":3
				}
			]
		}
	],
	"accessors":[
		{
			"bufferView":0,
			"componentType":5126,
			"count":744,
			"max":[
				0.47934773564338684,
				0.07686230540275574,
				0.3465154767036438
			],
			"min":[
				-0.2841677963733673,
				-0.07686230540275574,
				-0.35510706901550293
			],
			"type":"VEC3"
		},
		{
			"bufferView":1,
			"componentType":5126,
			"count":744,
			"type":"VEC3"
		},
		{
			"bufferView":2,
			"componentType":5126,
			"count":744,
			"type":"VEC2"
		},
		{
			"bufferView":3,
			"componentType":5123,
			"count":2196,
			"type":"SCALAR"
		}
	],
	"bufferViews":[
		{
			"buffer":0,
			"byteLength":8928,
			"byteOffset":0,
			"target":34962
		},
		{
			"buffer":0,
			"byteLength":8928,
			"byteOffset":8928,
			"target":34962
		},
		{
			"buffer":0,
			"byteLength":5952,
			"byteOffset":17856,
			"target":34962
		},
		{
			"buffer":0,
			"byteLength":4392,
			"byteOffset":23808,
			"target":34963
		}
	],
	"buffers":[
		{
			"byteLength":28200,
			"uri":"exit_icon.bin"
		}
	]
}
