{
	"asset":{
		"generator":"Khronos glTF Blender I/O v5.0.21",
		"version":"2.0"
	},
	"scene":0,
	"scenes":[
		{
			"name":"Scene",
			"nodes":[
				0
			]
		}
	],
	"nodes":[
		{
			"mesh":0,
			"name":"settings_icon"
		}
	],
	"meshes":[
		{
			"name":"settings_icon",
			"primitives":[
				{
					"attributes":{
						"POSITION":0,
						"NORMAL":1,
						"TEXCOORD_0":2
					},
					"indices":3
				}
			]
		}
	],
	"accessors":[
		{
			"bufferView":0,
			"componentType":5126,
			"count":1659,
			"max":[
				0.5365014672279358,
				0.060872916132211685,
				0.5459352135658264
			],
			"min":[
				-0.5375856757164001,
				-0.060947220772504807,
				-0.5295142531394958
			],
			"type":"VEC3"
		},
		{
			"bufferView":1,
			"componentType":5126,
			"count":1659,
			"type":"VEC3"
		},
		{
			"bufferView":2,
			"componentType":5126,
			"count":1659,
			"type":"VEC2"
		},
		{
			"bufferView":3,
			"componentType":5123,
			"count":4917,
			"type":"SCALAR"
		}
	],
	"bufferViews":[
		{
			"buffer":0,
			"byteLength":19908,
			"byteOffset":0,
			"target":34962
		},
		{
			"buffer":0,
			"byteLength":19908,
			"byteOffset":19908,
			"target":34962
		},
		{
			"buffer":0,
			"byteLength":13272,
			"byteOffset":39816,
			"target":34962
		},
		{
			"buffer":0,
			"byteLength":9834,
			"byteOffset":53088,
			"target":34963
		}
	],
	"buffers":[
		{
			"byteLength":62924,
			"uri":"settings_icon.bin"
		}
	]
}
