{
	"asset":{
		"generator":"Khronos glTF Blender I/O v4.5.49",
		"version":"2.0"
	},
	"extensionsUsed":[
		"KHR_materials_specular"
	],
	"scene":0,
	"scenes":[
		{
			"name":"Scene",
			"nodes":[
				0
			]
		}
	],
	"nodes":[
		{
			"mesh":0,
			"name":"speaker_base",
			"rotation":[
				0,
				0,
				-0.7071068286895752,
				0.7071068286895752
			],
			"translation":[
				0,
				39.984832763671875,
				1.6867363452911377
			]
		}
	],
	"materials":[
		{
			"doubleSided":true,
			"name":"Material.001",
			"pbrMetallicRoughness":{
				"baseColorFactor":[
					0.800000011920929,
					0.800000011920929,
					0.800000011920929,
					1
				],
				"metallicFactor":0,
				"roughnessFactor":0.5
			}
		},
		{
			"doubleSided":true,
			"extensions":{
				"KHR_materials_specular":{
					"specularFactor":0
				}
			},
			"name":"Material.002",
			"pbrMetallicRoughness":{
				"baseColorFactor":[
					0,
					0,
					0,
					1
				],
				"metallicFactor":0,
				"roughnessFactor":0.5
			}
		}
	],
	"meshes":[
		{
			"name":"AM261_033_wood_case",
			"primitives":[
				{
					"attributes":{
						"POSITION":0,
						"NORMAL":1,
						"TEXCOORD_0":2
					},
					"indices":3,
					"material":0
				},
				{
					"attributes":{
						"POSITION":4,
						"NORMAL":5,
						"TEXCOORD_0":6
					},
					"indices":7,
					"material":1
				}
			]
		}
	],
	"accessors":[
		{
			"bufferView":0,
			"componentType":5126,
			"count":834,
			"max":[
				39.98307418823242,
				5.997346878051758,
				4.345986843109131
			],
			"min":[
				-16.633678436279297,
				-6.002656936645508,
				-7.654019832611084
			],
			"type":"VEC3"
		},
		{
			"bufferView":1,
			"componentType":5126,
			"count":834,
			"type":"VEC3"
		},
		{
			"bufferView":2,
			"componentType":5126,
			"count":834,
			"type":"VEC2"
		},
		{
			"bufferView":3,
			"componentType":5123,
			"count":2481,
			"type":"SCALAR"
		},
		{
			"bufferView":4,
			"componentType":5126,
			"count":154,
			"max":[
				39.98307418823242,
				5.997346878051758,
				4.345986843109131
			],
			"min":[
				-16.633678436279297,
				-6.002656936645508,
				-7.654019832611084
			],
			"type":"VEC3"
		},
		{
			"bufferView":5,
			"componentType":5126,
			"count":154,
			"type":"VEC3"
		},
		{
			"bufferView":6,
			"componentType":5126,
			"count":154,
			"type":"VEC2"
		},
		{
			"bufferView":7,
			"componentType":5123,
			"count":591,
			"type":"SCALAR"
		}
	],
	"bufferViews":[
		{
			"buffer":0,
			"byteLength":10008,
			"byteOffset":0,
			"target":34962
		},
		{
			"buffer":0,
			"byteLength":10008,
			"byteOffset":10008,
			"target":34962
		},
		{
			"buffer":0,
			"byteLength":6672,
			"byteOffset":20016,
			"target":34962
		},
		{
			"buffer":0,
			"byteLength":4962,
			"byteOffset":26688,
			"target":34963
		},
		{
			"buffer":0,
			"byteLength":1848,
			"byteOffset":31652,
			"target":34962
		},
		{
			"buffer":0,
			"byteLength":1848,
			"byteOffset":33500,
			"target":34962
		},
		{
			"buffer":0,
			"byteLength":1232,
			"byteOffset":35348,
			"target":34962
		},
		{
			"buffer":0,
			"byteLength":1182,
			"byteOffset":36580,
			"target":34963
		}
	],
	"buffers":[
		{
			"byteLength":37764,
			"uri":"speaker_base.bin"
		}
	]
}
