{
	"asset":{
		"generator":"Khronos glTF Blender I/O v4.5.49",
		"version":"2.0"
	},
	"scene":0,
	"scenes":[
		{
			"name":"Scene",
			"nodes":[
				0
			]
		}
	],
	"nodes":[
		{
			"mesh":0,
			"name":"speaker",
			"translation":[
				0,
				-1.1716506378434133e-05,
				0
			]
		}
	],
	"meshes":[
		{
			"name":"AM261_033_speaker_001",
			"primitives":[
				{
					"attributes":{
						"POSITION":0,
						"NORMAL":1,
						"TEXCOORD_0":2
					},
					"indices":3
				},
				{
					"attributes":{
						"POSITION":4,
						"NORMAL":5,
						"TEXCOORD_0":6
					},
					"indices":7
				},
				{
					"attributes":{
						"POSITION":8,
						"NORMAL":9,
						"TEXCOORD_0":10
					},
					"indices":11
				},
				{
					"attributes":{
						"POSITION":12,
						"NORMAL":13,
						"TEXCOORD_0":14
					},
					"indices":15
				},
				{
					"attributes":{
						"POSITION":16,
						"NORMAL":17,
						"TEXCOORD_0":18
					},
					"indices":19
				}
			]
		}
	],
	"accessors":[
		{
			"bufferView":0,
			"componentType":5126,
			"count":865,
			"max":[
				2.175522804260254,
				2.1755192279815674,
				0.230611190199852
			],
			"min":[
				-2.175522565841675,
				-2.1755244731903076,
				-0.5547138452529907
			],
			"type":"VEC3"
		},
		{
			"bufferView":1,
			"componentType":5126,
			"count":865,
			"type":"VEC3"
		},
		{
			"bufferView":2,
			"componentType":5126,
			"count":865,
			"type":"VEC2"
		},
		{
			"bufferView":3,
			"componentType":5123,
			"count":5076,
			"type":"SCALAR"
		},
		{
			"bufferView":4,
			"componentType":5126,
			"count":396,
			"max":[
				4.500000476837158,
				4.499997615814209,
				0.34240663051605225
			],
			"min":[
				-4.5,
				-4.500002384185791,
				-0.07938731461763382
			],
			"type":"VEC3"
		},
		{
			"bufferView":5,
			"componentType":5126,
			"count":396,
			"type":"VEC3"
		},
		{
			"bufferView":6,
			"componentType":5126,
			"count":396,
			"type":"VEC2"
		},
		{
			"bufferView":7,
			"componentType":5123,
			"count":2160,
			"type":"SCALAR"
		},
		{
			"bufferView":8,
			"componentType":5126,
			"count":360,
			"max":[
				3.800121307373047,
				3.8001224994659424,
				0.24171386659145355
			],
			"min":[
				-3.8001205921173096,
				-3.8001277446746826,
				0.17744861543178558
			],
			"type":"VEC3"
		},
		{
			"bufferView":9,
			"componentType":5126,
			"count":360,
			"type":"VEC3"
		},
		{
			"bufferView":10,
			"componentType":5126,
			"count":360,
			"type":"VEC2"
		},
		{
			"bufferView":11,
			"componentType":5123,
			"count":1944,
			"type":"SCALAR"
		},
		{
			"bufferView":12,
			"componentType":5126,
			"count":504,
			"max":[
				3.4347074031829834,
				3.4347050189971924,
				0.324642539024353
			],
			"min":[
				-3.4347074031829834,
				-3.4347102642059326,
				0.17744861543178558
			],
			"type":"VEC3"
		},
		{
			"bufferView":13,
			"componentType":5126,
			"count":504,
			"type":"VEC3"
		},
		{
			"bufferView":14,
			"componentType":5126,
			"count":504,
			"type":"VEC2"
		},
		{
			"bufferView":15,
			"componentType":5123,
			"count":2808,
			"type":"SCALAR"
		},
		{
			"bufferView":16,
			"componentType":5126,
			"count":144,
			"max":[
				2.9994170665740967,
				2.9994099140167236,
				0.1774505227804184
			],
			"min":[
				-2.9994168281555176,
				-2.999422788619995,
				-0.38467276096343994
			],
			"type":"VEC3"
		},
		{
			"bufferView":17,
			"componentType":5126,
			"count":144,
			"type":"VEC3"
		},
		{
			"bufferView":18,
			"componentType":5126,
			"count":144,
			"type":"VEC2"
		},
		{
			"bufferView":19,
			"componentType":5123,
			"count":648,
			"type":"SCALAR"
		}
	],
	"bufferViews":[
		{
			"buffer":0,
			"byteLength":10380,
			"byteOffset":0,
			"target":34962
		},
		{
			"buffer":0,
			"byteLength":10380,
			"byteOffset":10380,
			"target":34962
		},
		{
			"buffer":0,
			"byteLength":6920,
			"byteOffset":20760,
			"target":34962
		},
		{
			"buffer":0,
			"byteLength":10152,
			"byteOffset":27680,
			"target":34963
		},
		{
			"buffer":0,
			"byteLength":4752,
			"byteOffset":37832,
			"target":34962
		},
		{
			"buffer":0,
			"byteLength":4752,
			"byteOffset":42584,
			"target":34962
		},
		{
			"buffer":0,
			"byteLength":3168,
			"byteOffset":47336,
			"target":34962
		},
		{
			"buffer":0,
			"byteLength":4320,
			"byteOffset":50504,
			"target":34963
		},
		{
			"buffer":0,
			"byteLength":4320,
			"byteOffset":54824,
			"target":34962
		},
		{
			"buffer":0,
			"byteLength":4320,
			"byteOffset":59144,
			"target":34962
		},
		{
			"buffer":0,
			"byteLength":2880,
			"byteOffset":63464,
			"target":34962
		},
		{
			"buffer":0,
			"byteLength":3888,
			"byteOffset":66344,
			"target":34963
		},
		{
			"buffer":0,
			"byteLength":6048,
			"byteOffset":70232,
			"target":34962
		},
		{
			"buffer":0,
			"byteLength":6048,
			"byteOffset":76280,
			"target":34962
		},
		{
			"buffer":0,
			"byteLength":4032,
			"byteOffset":82328,
			"target":34962
		},
		{
			"buffer":0,
			"byteLength":5616,
			"byteOffset":86360,
			"target":34963
		},
		{
			"buffer":0,
			"byteLength":1728,
			"byteOffset":91976,
			"target":34962
		},
		{
			"buffer":0,
			"byteLength":1728,
			"byteOffset":93704,
			"target":34962
		},
		{
			"buffer":0,
			"byteLength":1152,
			"byteOffset":95432,
			"target":34962
		},
		{
			"buffer":0,
			"byteLength":1296,
			"byteOffset":96584,
			"target":34963
		}
	],
	"buffers":[
		{
			"byteLength":97880,
			"uri":"speaker.bin"
		}
	]
}
