<?xml version="1.0" encoding="UTF-8" standalone="no"?>
<svg
   viewBox="0 0 12.8 12.8"
   version="1.1"
   id="svg1"
   width="12.8"
   height="12.8"
   xmlns="http://www.w3.org/2000/svg"
   xmlns:svg="http://www.w3.org/2000/svg">
  <defs
     id="defs1" />
  <!--!Font Awesome Free 7.1.0 by @fontawesome - https://fontawesome.com License - https://fontawesome.com/license/free Copyright 2025 Fonticons, Inc.-->
  <path
     d="m -4.7683717e-8,7.9999999 v -5.6 C -4.7683717e-8,1.0749999 1.075,-1.3113022e-7 2.4,-1.3113022e-7 h 8 c 1.325,0 2.4,1.07500003113022 2.4,2.40000003113022 v 5.6 C 12.8,9.3249999 11.725,10.4 10.4,10.4 h -3 c -0.13,0 -0.255,0.0425 -0.36,0.12 L 4.16,12.68 C 4.055,12.7575 3.93,12.8 3.8,12.8 3.4675,12.8 3.2,12.5325 3.2,12.2 V 10.4 H 2.4 C 1.075,10.4 -4.7683717e-8,9.3249999 -4.7683717e-8,7.9999999 Z"
     id="path1"
     style="fill:#e0e0e0;fill-opacity:1;stroke-width:0.025" />
</svg>
