{
	"asset":{
		"generator":"Khronos glTF Blender I/O v4.5.48",
		"version":"2.0"
	},
	"scene":0,
	"scenes":[
		{
			"name":"Scene",
			"nodes":[
				0
			]
		}
	],
	"nodes":[
		{
			"mesh":0,
			"name":"rail_new"
		}
	],
	"meshes":[
		{
			"name":"rail_new",
			"primitives":[
				{
					"attributes":{
						"POSITION":0,
						"NORMAL":1,
						"TEXCOORD_0":2
					},
					"indices":3
				},
				{
					"attributes":{
						"POSITION":4,
						"NORMAL":5,
						"TEXCOORD_0":6
					},
					"indices":7
				},
				{
					"attributes":{
						"POSITION":8,
						"NORMAL":9,
						"TEXCOORD_0":10
					},
					"indices":11
				}
			]
		}
	],
	"accessors":[
		{
			"bufferView":0,
			"componentType":5126,
			"count":76,
			"max":[
				1,
				1.9992141723632812,
				40.48039245605469
			],
			"min":[
				-1,
				-0.00078582763671875,
				-199.9994354248047
			],
			"type":"VEC3"
		},
		{
			"bufferView":1,
			"componentType":5126,
			"count":76,
			"type":"VEC3"
		},
		{
			"bufferView":2,
			"componentType":5126,
			"count":76,
			"type":"VEC2"
		},
		{
			"bufferView":3,
			"componentType":5123,
			"count":126,
			"type":"SCALAR"
		},
		{
			"bufferView":4,
			"componentType":5126,
			"count":112,
			"max":[
				1,
				1.9992141723632812,
				40.48039245605469
			],
			"min":[
				-1,
				-0.00078582763671875,
				-199.9994354248047
			],
			"type":"VEC3"
		},
		{
			"bufferView":5,
			"componentType":5126,
			"count":112,
			"type":"VEC3"
		},
		{
			"bufferView":6,
			"componentType":5126,
			"count":112,
			"type":"VEC2"
		},
		{
			"bufferView":7,
			"componentType":5123,
			"count":144,
			"type":"SCALAR"
		},
		{
			"bufferView":8,
			"componentType":5126,
			"count":4,
			"max":[
				0.4038790762424469,
				1.617484211921692,
				39.88426971435547
			],
			"min":[
				-0.4038790762424469,
				1.617484211921692,
				-199.4033203125
			],
			"type":"VEC3"
		},
		{
			"bufferView":9,
			"componentType":5126,
			"count":4,
			"type":"VEC3"
		},
		{
			"bufferView":10,
			"componentType":5126,
			"count":4,
			"type":"VEC2"
		},
		{
			"bufferView":11,
			"componentType":5123,
			"count":6,
			"type":"SCALAR"
		}
	],
	"bufferViews":[
		{
			"buffer":0,
			"byteLength":912,
			"byteOffset":0,
			"target":34962
		},
		{
			"buffer":0,
			"byteLength":912,
			"byteOffset":912,
			"target":34962
		},
		{
			"buffer":0,
			"byteLength":608,
			"byteOffset":1824,
			"target":34962
		},
		{
			"buffer":0,
			"byteLength":252,
			"byteOffset":2432,
			"target":34963
		},
		{
			"buffer":0,
			"byteLength":1344,
			"byteOffset":2684,
			"target":34962
		},
		{
			"buffer":0,
			"byteLength":1344,
			"byteOffset":4028,
			"target":34962
		},
		{
			"buffer":0,
			"byteLength":896,
			"byteOffset":5372,
			"target":34962
		},
		{
			"buffer":0,
			"byteLength":288,
			"byteOffset":6268,
			"target":34963
		},
		{
			"buffer":0,
			"byteLength":48,
			"byteOffset":6556,
			"target":34962
		},
		{
			"buffer":0,
			"byteLength":48,
			"byteOffset":6604,
			"target":34962
		},
		{
			"buffer":0,
			"byteLength":32,
			"byteOffset":6652,
			"target":34962
		},
		{
			"buffer":0,
			"byteLength":12,
			"byteOffset":6684,
			"target":34963
		}
	],
	"buffers":[
		{
			"byteLength":6696,
			"uri":"rail_02_better_size.bin"
		}
	]
}
