{
	"asset":{
		"generator":"Khronos glTF Blender I/O v4.5.48",
		"version":"2.0"
	},
	"scene":0,
	"scenes":[
		{
			"name":"Scene",
			"nodes":[
				0
			]
		}
	],
	"nodes":[
		{
			"mesh":0,
			"name":"rails_01",
			"translation":[
				0,
				-3.6530544757843018,
				2.167076826095581
			]
		}
	],
	"meshes":[
		{
			"name":"rails_01",
			"primitives":[
				{
					"attributes":{
						"POSITION":0,
						"NORMAL":1,
						"TEXCOORD_0":2,
						"TEXCOORD_1":3
					},
					"indices":4
				},
				{
					"attributes":{
						"POSITION":5,
						"NORMAL":6,
						"TEXCOORD_0":7,
						"TEXCOORD_1":8
					},
					"indices":9
				},
				{
					"attributes":{
						"POSITION":10,
						"NORMAL":11,
						"TEXCOORD_0":12,
						"TEXCOORD_1":13
					},
					"indices":14
				}
			]
		}
	],
	"accessors":[
		{
			"bufferView":0,
			"componentType":5126,
			"count":1134,
			"max":[
				0.6026985049247742,
				4.7187347412109375,
				20.706518173217773
			],
			"min":[
				-0.37439703941345215,
				-6.532646656036377,
				-105.96553802490234
			],
			"type":"VEC3"
		},
		{
			"bufferView":1,
			"componentType":5126,
			"count":1134,
			"type":"VEC3"
		},
		{
			"bufferView":2,
			"componentType":5126,
			"count":1134,
			"type":"VEC2"
		},
		{
			"bufferView":3,
			"componentType":5126,
			"count":1134,
			"type":"VEC2"
		},
		{
			"bufferView":4,
			"componentType":5123,
			"count":3360,
			"type":"SCALAR"
		},
		{
			"bufferView":5,
			"componentType":5126,
			"count":163,
			"max":[
				0.6026985049247742,
				4.704297065734863,
				20.706518173217773
			],
			"min":[
				-0.37439703941345215,
				-6.5530195236206055,
				-105.96553802490234
			],
			"type":"VEC3"
		},
		{
			"bufferView":6,
			"componentType":5126,
			"count":163,
			"type":"VEC3"
		},
		{
			"bufferView":7,
			"componentType":5126,
			"count":163,
			"type":"VEC2"
		},
		{
			"bufferView":8,
			"componentType":5126,
			"count":163,
			"type":"VEC2"
		},
		{
			"bufferView":9,
			"componentType":5123,
			"count":486,
			"type":"SCALAR"
		},
		{
			"bufferView":10,
			"componentType":5126,
			"count":400,
			"max":[
				0.6026985049247742,
				4.7187347412109375,
				20.70189094543457
			],
			"min":[
				-0.37439703941345215,
				-6.539648056030273,
				-105.95606231689453
			],
			"type":"VEC3"
		},
		{
			"bufferView":11,
			"componentType":5126,
			"count":400,
			"type":"VEC3"
		},
		{
			"bufferView":12,
			"componentType":5126,
			"count":400,
			"type":"VEC2"
		},
		{
			"bufferView":13,
			"componentType":5126,
			"count":400,
			"type":"VEC2"
		},
		{
			"bufferView":14,
			"componentType":5123,
			"count":1146,
			"type":"SCALAR"
		}
	],
	"bufferViews":[
		{
			"buffer":0,
			"byteLength":13608,
			"byteOffset":0,
			"target":34962
		},
		{
			"buffer":0,
			"byteLength":13608,
			"byteOffset":13608,
			"target":34962
		},
		{
			"buffer":0,
			"byteLength":9072,
			"byteOffset":27216,
			"target":34962
		},
		{
			"buffer":0,
			"byteLength":9072,
			"byteOffset":36288,
			"target":34962
		},
		{
			"buffer":0,
			"byteLength":6720,
			"byteOffset":45360,
			"target":34963
		},
		{
			"buffer":0,
			"byteLength":1956,
			"byteOffset":52080,
			"target":34962
		},
		{
			"buffer":0,
			"byteLength":1956,
			"byteOffset":54036,
			"target":34962
		},
		{
			"buffer":0,
			"byteLength":1304,
			"byteOffset":55992,
			"target":34962
		},
		{
			"buffer":0,
			"byteLength":1304,
			"byteOffset":57296,
			"target":34962
		},
		{
			"buffer":0,
			"byteLength":972,
			"byteOffset":58600,
			"target":34963
		},
		{
			"buffer":0,
			"byteLength":4800,
			"byteOffset":59572,
			"target":34962
		},
		{
			"buffer":0,
			"byteLength":4800,
			"byteOffset":64372,
			"target":34962
		},
		{
			"buffer":0,
			"byteLength":3200,
			"byteOffset":69172,
			"target":34962
		},
		{
			"buffer":0,
			"byteLength":3200,
			"byteOffset":72372,
			"target":34962
		},
		{
			"buffer":0,
			"byteLength":2292,
			"byteOffset":75572,
			"target":34963
		}
	],
	"buffers":[
		{
			"byteLength":77864,
			"uri":"rail_01.bin"
		}
	]
}
