{
	"asset":{
		"generator":"Khronos glTF Blender I/O v5.0.21",
		"version":"2.0"
	},
	"extensionsUsed":[
		"KHR_materials_specular"
	],
	"scene":0,
	"scenes":[
		{
			"name":"Scene",
			"nodes":[
				0
			]
		}
	],
	"nodes":[
		{
			"mesh":0,
			"name":"building_01"
		}
	],
	"materials":[
		{
			"doubleSided":true,
			"extensions":{
				"KHR_materials_specular":{
					"specularFactor":0
				}
			},
			"name":"Dark Blue",
			"pbrMetallicRoughness":{
				"baseColorFactor":[
					0.004329681396484375,
					0.003238677978515625,
					0.03912353515625,
					1
				],
				"metallicFactor":0,
				"roughnessFactor":0.5
			}
		}
	],
	"meshes":[
		{
			"name":"building_01",
			"primitives":[
				{
					"attributes":{
						"POSITION":0,
						"NORMAL":1,
						"TEXCOORD_0":2
					},
					"indices":3,
					"material":0
				},
				{
					"attributes":{
						"POSITION":4,
						"NORMAL":5,
						"TEXCOORD_0":6
					},
					"indices":7
				}
			]
		}
	],
	"accessors":[
		{
			"bufferView":0,
			"componentType":5126,
			"count":1668,
			"max":[
				0.8790668249130249,
				4.795715808868408,
				0.16730545461177826
			],
			"min":[
				-0.8699883222579956,
				-0.00041413307189941406,
				-1.3428291082382202
			],
			"type":"VEC3"
		},
		{
			"bufferView":1,
			"componentType":5126,
			"count":1668,
			"type":"VEC3"
		},
		{
			"bufferView":2,
			"componentType":5126,
			"count":1668,
			"type":"VEC2"
		},
		{
			"bufferView":3,
			"componentType":5123,
			"count":3624,
			"type":"SCALAR"
		},
		{
			"bufferView":4,
			"componentType":5126,
			"count":367,
			"max":[
				0.6584154367446899,
				4.558863162994385,
				0.11629016697406769
			],
			"min":[
				-0.6514415144920349,
				-0.0004138946533203125,
				0.08603184670209885
			],
			"type":"VEC3"
		},
		{
			"bufferView":5,
			"componentType":5126,
			"count":367,
			"type":"VEC3"
		},
		{
			"bufferView":6,
			"componentType":5126,
			"count":367,
			"type":"VEC2"
		},
		{
			"bufferView":7,
			"componentType":5123,
			"count":813,
			"type":"SCALAR"
		}
	],
	"bufferViews":[
		{
			"buffer":0,
			"byteLength":20016,
			"byteOffset":0,
			"target":34962
		},
		{
			"buffer":0,
			"byteLength":20016,
			"byteOffset":20016,
			"target":34962
		},
		{
			"buffer":0,
			"byteLength":13344,
			"byteOffset":40032,
			"target":34962
		},
		{
			"buffer":0,
			"byteLength":7248,
			"byteOffset":53376,
			"target":34963
		},
		{
			"buffer":0,
			"byteLength":4404,
			"byteOffset":60624,
			"target":34962
		},
		{
			"buffer":0,
			"byteLength":4404,
			"byteOffset":65028,
			"target":34962
		},
		{
			"buffer":0,
			"byteLength":2936,
			"byteOffset":69432,
			"target":34962
		},
		{
			"buffer":0,
			"byteLength":1626,
			"byteOffset":72368,
			"target":34963
		}
	],
	"buffers":[
		{
			"byteLength":73996,
			"uri":"building_01.bin"
		}
	]
}
