{
	"asset":{
		"generator":"Khronos glTF Blender I/O v5.0.21",
		"version":"2.0"
	},
	"extensionsUsed":[
		"KHR_materials_emissive_strength",
		"KHR_materials_specular"
	],
	"scene":0,
	"scenes":[
		{
			"name":"Scene",
			"nodes":[
				0
			]
		}
	],
	"nodes":[
		{
			"mesh":0,
			"name":"building_08"
		}
	],
	"materials":[
		{
			"doubleSided":true,
			"extensions":{
				"KHR_materials_specular":{
					"specularFactor":0
				}
			},
			"name":"Dark Blue",
			"pbrMetallicRoughness":{
				"baseColorFactor":[
					0.004329681396484375,
					0.003238677978515625,
					0.03912353515625,
					1
				],
				"metallicFactor":0,
				"roughnessFactor":0.5
			}
		},
		{
			"doubleSided":true,
			"emissiveFactor":[
				0.8886282444000244,
				1,
				0.8336970806121826
			],
			"extensions":{
				"KHR_materials_emissive_strength":{
					"emissiveStrength":1.399999976158142
				}
			},
			"name":"Emissive_test_01",
			"pbrMetallicRoughness":{
				"baseColorFactor":[
					0,
					0,
					0,
					1
				]
			}
		}
	],
	"meshes":[
		{
			"name":"building_08",
			"primitives":[
				{
					"attributes":{
						"POSITION":0,
						"NORMAL":1,
						"TEXCOORD_0":2
					},
					"indices":3,
					"material":0
				},
				{
					"attributes":{
						"POSITION":4,
						"NORMAL":5,
						"TEXCOORD_0":6
					},
					"indices":7,
					"material":1
				}
			]
		}
	],
	"accessors":[
		{
			"bufferView":0,
			"componentType":5126,
			"count":9928,
			"max":[
				0.7694199681282043,
				5.316810607910156,
				0.12846018373966217
			],
			"min":[
				-0.7588813900947571,
				0.002150740474462509,
				-2.6873369216918945
			],
			"type":"VEC3"
		},
		{
			"bufferView":1,
			"componentType":5126,
			"count":9928,
			"type":"VEC3"
		},
		{
			"bufferView":2,
			"componentType":5126,
			"count":9928,
			"type":"VEC2"
		},
		{
			"bufferView":3,
			"componentType":5123,
			"count":20283,
			"type":"SCALAR"
		},
		{
			"bufferView":4,
			"componentType":5126,
			"count":4,
			"max":[
				0.5506992936134338,
				5.1939802169799805,
				0.041522685438394547
			],
			"min":[
				-0.6151769161224365,
				0.5604293346405029,
				0.041522249579429626
			],
			"type":"VEC3"
		},
		{
			"bufferView":5,
			"componentType":5126,
			"count":4,
			"type":"VEC3"
		},
		{
			"bufferView":6,
			"componentType":5126,
			"count":4,
			"type":"VEC2"
		},
		{
			"bufferView":7,
			"componentType":5123,
			"count":6,
			"type":"SCALAR"
		}
	],
	"bufferViews":[
		{
			"buffer":0,
			"byteLength":119136,
			"byteOffset":0,
			"target":34962
		},
		{
			"buffer":0,
			"byteLength":119136,
			"byteOffset":119136,
			"target":34962
		},
		{
			"buffer":0,
			"byteLength":79424,
			"byteOffset":238272,
			"target":34962
		},
		{
			"buffer":0,
			"byteLength":40566,
			"byteOffset":317696,
			"target":34963
		},
		{
			"buffer":0,
			"byteLength":48,
			"byteOffset":358264,
			"target":34962
		},
		{
			"buffer":0,
			"byteLength":48,
			"byteOffset":358312,
			"target":34962
		},
		{
			"buffer":0,
			"byteLength":32,
			"byteOffset":358360,
			"target":34962
		},
		{
			"buffer":0,
			"byteLength":12,
			"byteOffset":358392,
			"target":34963
		}
	],
	"buffers":[
		{
			"byteLength":358404,
			"uri":"building_08.bin"
		}
	]
}
