{
	"asset":{
		"generator":"Khronos glTF Blender I/O v5.0.21",
		"version":"2.0"
	},
	"extensionsUsed":[
		"KHR_materials_specular"
	],
	"scene":0,
	"scenes":[
		{
			"name":"Scene",
			"nodes":[
				0
			]
		}
	],
	"nodes":[
		{
			"mesh":0,
			"name":"building_02"
		}
	],
	"materials":[
		{
			"doubleSided":true,
			"extensions":{
				"KHR_materials_specular":{
					"specularFactor":0
				}
			},
			"name":"Dark Purple",
			"pbrMetallicRoughness":{
				"baseColorFactor":[
					0.0140838623046875,
					0.006496429443359375,
					0.04022216796875,
					1
				],
				"metallicFactor":0,
				"roughnessFactor":0.5
			}
		}
	],
	"meshes":[
		{
			"name":"building_02",
			"primitives":[
				{
					"attributes":{
						"POSITION":0,
						"NORMAL":1,
						"TEXCOORD_0":2
					},
					"indices":3,
					"material":0
				},
				{
					"attributes":{
						"POSITION":4,
						"NORMAL":5,
						"TEXCOORD_0":6
					},
					"indices":7
				}
			]
		}
	],
	"accessors":[
		{
			"bufferView":0,
			"componentType":5126,
			"count":1621,
			"max":[
				1.3107374906539917,
				3.9840712547302246,
				0.7382940053939819
			],
			"min":[
				-1.2283118963241577,
				-0.00016927719116210938,
				-2.0149385929107666
			],
			"type":"VEC3"
		},
		{
			"bufferView":1,
			"componentType":5126,
			"count":1621,
			"type":"VEC3"
		},
		{
			"bufferView":2,
			"componentType":5126,
			"count":1621,
			"type":"VEC2"
		},
		{
			"bufferView":3,
			"componentType":5123,
			"count":4014,
			"type":"SCALAR"
		},
		{
			"bufferView":4,
			"componentType":5126,
			"count":312,
			"max":[
				1.1175209283828735,
				3.4559288024902344,
				0.6530989408493042
			],
			"min":[
				-1.018325686454773,
				-0.00016927719116210938,
				0.6530988216400146
			],
			"type":"VEC3"
		},
		{
			"bufferView":5,
			"componentType":5126,
			"count":312,
			"type":"VEC3"
		},
		{
			"bufferView":6,
			"componentType":5126,
			"count":312,
			"type":"VEC2"
		},
		{
			"bufferView":7,
			"componentType":5123,
			"count":504,
			"type":"SCALAR"
		}
	],
	"bufferViews":[
		{
			"buffer":0,
			"byteLength":19452,
			"byteOffset":0,
			"target":34962
		},
		{
			"buffer":0,
			"byteLength":19452,
			"byteOffset":19452,
			"target":34962
		},
		{
			"buffer":0,
			"byteLength":12968,
			"byteOffset":38904,
			"target":34962
		},
		{
			"buffer":0,
			"byteLength":8028,
			"byteOffset":51872,
			"target":34963
		},
		{
			"buffer":0,
			"byteLength":3744,
			"byteOffset":59900,
			"target":34962
		},
		{
			"buffer":0,
			"byteLength":3744,
			"byteOffset":63644,
			"target":34962
		},
		{
			"buffer":0,
			"byteLength":2496,
			"byteOffset":67388,
			"target":34962
		},
		{
			"buffer":0,
			"byteLength":1008,
			"byteOffset":69884,
			"target":34963
		}
	],
	"buffers":[
		{
			"byteLength":70892,
			"uri":"building_02.bin"
		}
	]
}
