{
	"asset":{
		"generator":"Khronos glTF Blender I/O v5.0.21",
		"version":"2.0"
	},
	"extensionsUsed":[
		"KHR_materials_specular"
	],
	"scene":0,
	"scenes":[
		{
			"name":"Scene",
			"nodes":[
				0
			]
		}
	],
	"nodes":[
		{
			"mesh":0,
			"name":"building_06"
		}
	],
	"materials":[
		{
			"doubleSided":true,
			"extensions":{
				"KHR_materials_specular":{
					"specularFactor":0
				}
			},
			"name":"Dark Purple",
			"pbrMetallicRoughness":{
				"baseColorFactor":[
					0.0140838623046875,
					0.006496429443359375,
					0.04022216796875,
					1
				],
				"metallicFactor":0,
				"roughnessFactor":0.5
			}
		}
	],
	"meshes":[
		{
			"name":"building_06",
			"primitives":[
				{
					"attributes":{
						"POSITION":0,
						"NORMAL":1,
						"TEXCOORD_0":2,
						"TEXCOORD_1":3
					},
					"indices":4,
					"material":0
				},
				{
					"attributes":{
						"POSITION":5,
						"NORMAL":6,
						"TEXCOORD_0":7,
						"TEXCOORD_1":8
					},
					"indices":9
				}
			]
		}
	],
	"accessors":[
		{
			"bufferView":0,
			"componentType":5126,
			"count":11532,
			"max":[
				0.9291040897369385,
				4.853060722351074,
				0.05283822491765022
			],
			"min":[
				-0.93204665184021,
				-0.001173257827758789,
				-2.174685001373291
			],
			"type":"VEC3"
		},
		{
			"bufferView":1,
			"componentType":5126,
			"count":11532,
			"type":"VEC3"
		},
		{
			"bufferView":2,
			"componentType":5126,
			"count":11532,
			"type":"VEC2"
		},
		{
			"bufferView":3,
			"componentType":5126,
			"count":11532,
			"type":"VEC2"
		},
		{
			"bufferView":4,
			"componentType":5123,
			"count":26196,
			"type":"SCALAR"
		},
		{
			"bufferView":5,
			"componentType":5126,
			"count":688,
			"max":[
				0.8952229022979736,
				4.762042045593262,
				0.036696113646030426
			],
			"min":[
				-0.8393762111663818,
				0.011054277420043945,
				-0.06701186299324036
			],
			"type":"VEC3"
		},
		{
			"bufferView":6,
			"componentType":5126,
			"count":688,
			"type":"VEC3"
		},
		{
			"bufferView":7,
			"componentType":5126,
			"count":688,
			"type":"VEC2"
		},
		{
			"bufferView":8,
			"componentType":5126,
			"count":688,
			"type":"VEC2"
		},
		{
			"bufferView":9,
			"componentType":5123,
			"count":1032,
			"type":"SCALAR"
		}
	],
	"bufferViews":[
		{
			"buffer":0,
			"byteLength":138384,
			"byteOffset":0,
			"target":34962
		},
		{
			"buffer":0,
			"byteLength":138384,
			"byteOffset":138384,
			"target":34962
		},
		{
			"buffer":0,
			"byteLength":92256,
			"byteOffset":276768,
			"target":34962
		},
		{
			"buffer":0,
			"byteLength":92256,
			"byteOffset":369024,
			"target":34962
		},
		{
			"buffer":0,
			"byteLength":52392,
			"byteOffset":461280,
			"target":34963
		},
		{
			"buffer":0,
			"byteLength":8256,
			"byteOffset":513672,
			"target":34962
		},
		{
			"buffer":0,
			"byteLength":8256,
			"byteOffset":521928,
			"target":34962
		},
		{
			"buffer":0,
			"byteLength":5504,
			"byteOffset":530184,
			"target":34962
		},
		{
			"buffer":0,
			"byteLength":5504,
			"byteOffset":535688,
			"target":34962
		},
		{
			"buffer":0,
			"byteLength":2064,
			"byteOffset":541192,
			"target":34963
		}
	],
	"buffers":[
		{
			"byteLength":543256,
			"uri":"building_06.bin"
		}
	]
}
