{
	"asset":{
		"generator":"Khronos glTF Blender I/O v5.0.21",
		"version":"2.0"
	},
	"extensionsUsed":[
		"KHR_materials_specular"
	],
	"scene":0,
	"scenes":[
		{
			"name":"Scene",
			"nodes":[
				0
			]
		}
	],
	"nodes":[
		{
			"mesh":0,
			"name":"building_04"
		}
	],
	"materials":[
		{
			"doubleSided":true,
			"extensions":{
				"KHR_materials_specular":{
					"specularFactor":0
				}
			},
			"name":"Dark Purple",
			"pbrMetallicRoughness":{
				"baseColorFactor":[
					0.0140838623046875,
					0.006496429443359375,
					0.04022216796875,
					1
				],
				"metallicFactor":0,
				"roughnessFactor":0.5
			}
		}
	],
	"meshes":[
		{
			"name":"building_04",
			"primitives":[
				{
					"attributes":{
						"POSITION":0,
						"NORMAL":1,
						"TEXCOORD_0":2
					},
					"indices":3,
					"material":0
				},
				{
					"attributes":{
						"POSITION":4,
						"NORMAL":5,
						"TEXCOORD_0":6
					},
					"indices":7
				}
			]
		}
	],
	"accessors":[
		{
			"bufferView":0,
			"componentType":5126,
			"count":512,
			"max":[
				0.7522671222686768,
				3.4805426597595215,
				0.37457168102264404
			],
			"min":[
				-0.6768848896026611,
				-0.0005538463592529297,
				-2.1537797451019287
			],
			"type":"VEC3"
		},
		{
			"bufferView":1,
			"componentType":5126,
			"count":512,
			"type":"VEC3"
		},
		{
			"bufferView":2,
			"componentType":5126,
			"count":512,
			"type":"VEC2"
		},
		{
			"bufferView":3,
			"componentType":5123,
			"count":1185,
			"type":"SCALAR"
		},
		{
			"bufferView":4,
			"componentType":5126,
			"count":69,
			"max":[
				0.5462099313735962,
				3.2180726528167725,
				0.3095919191837311
			],
			"min":[
				-0.46937814354896545,
				0.03880906105041504,
				0.30959174036979675
			],
			"type":"VEC3"
		},
		{
			"bufferView":5,
			"componentType":5126,
			"count":69,
			"type":"VEC3"
		},
		{
			"bufferView":6,
			"componentType":5126,
			"count":69,
			"type":"VEC2"
		},
		{
			"bufferView":7,
			"componentType":5123,
			"count":117,
			"type":"SCALAR"
		}
	],
	"bufferViews":[
		{
			"buffer":0,
			"byteLength":6144,
			"byteOffset":0,
			"target":34962
		},
		{
			"buffer":0,
			"byteLength":6144,
			"byteOffset":6144,
			"target":34962
		},
		{
			"buffer":0,
			"byteLength":4096,
			"byteOffset":12288,
			"target":34962
		},
		{
			"buffer":0,
			"byteLength":2370,
			"byteOffset":16384,
			"target":34963
		},
		{
			"buffer":0,
			"byteLength":828,
			"byteOffset":18756,
			"target":34962
		},
		{
			"buffer":0,
			"byteLength":828,
			"byteOffset":19584,
			"target":34962
		},
		{
			"buffer":0,
			"byteLength":552,
			"byteOffset":20412,
			"target":34962
		},
		{
			"buffer":0,
			"byteLength":234,
			"byteOffset":20964,
			"target":34963
		}
	],
	"buffers":[
		{
			"byteLength":21200,
			"uri":"building_04.bin"
		}
	]
}
