{
	"asset":{
		"generator":"Khronos glTF Blender I/O v5.0.21",
		"version":"2.0"
	},
	"extensionsUsed":[
		"KHR_materials_specular"
	],
	"scene":0,
	"scenes":[
		{
			"name":"Scene",
			"nodes":[
				0
			]
		}
	],
	"nodes":[
		{
			"mesh":0,
			"name":"building_05"
		}
	],
	"materials":[
		{
			"doubleSided":true,
			"extensions":{
				"KHR_materials_specular":{
					"specularFactor":0
				}
			},
			"name":"Dark Blue",
			"pbrMetallicRoughness":{
				"baseColorFactor":[
					0.004329681396484375,
					0.003238677978515625,
					0.03912353515625,
					1
				],
				"metallicFactor":0,
				"roughnessFactor":0.5
			}
		}
	],
	"meshes":[
		{
			"name":"building_05",
			"primitives":[
				{
					"attributes":{
						"POSITION":0,
						"NORMAL":1,
						"TEXCOORD_0":2
					},
					"indices":3,
					"material":0
				},
				{
					"attributes":{
						"POSITION":4,
						"NORMAL":5,
						"TEXCOORD_0":6
					},
					"indices":7
				}
			]
		}
	],
	"accessors":[
		{
			"bufferView":0,
			"componentType":5126,
			"count":1760,
			"max":[
				0.890076756477356,
				3.0683774948120117,
				0.22772768139839172
			],
			"min":[
				-0.9048415422439575,
				0.0006624460220336914,
				-2.4066147804260254
			],
			"type":"VEC3"
		},
		{
			"bufferView":1,
			"componentType":5126,
			"count":1760,
			"type":"VEC3"
		},
		{
			"bufferView":2,
			"componentType":5126,
			"count":1760,
			"type":"VEC2"
		},
		{
			"bufferView":3,
			"componentType":5123,
			"count":4020,
			"type":"SCALAR"
		},
		{
			"bufferView":4,
			"componentType":5126,
			"count":237,
			"max":[
				0.7525938749313354,
				2.9644908905029297,
				0.21324828267097473
			],
			"min":[
				-0.6346184015274048,
				0.0006624460220336914,
				0.13803032040596008
			],
			"type":"VEC3"
		},
		{
			"bufferView":5,
			"componentType":5126,
			"count":237,
			"type":"VEC3"
		},
		{
			"bufferView":6,
			"componentType":5126,
			"count":237,
			"type":"VEC2"
		},
		{
			"bufferView":7,
			"componentType":5123,
			"count":405,
			"type":"SCALAR"
		}
	],
	"bufferViews":[
		{
			"buffer":0,
			"byteLength":21120,
			"byteOffset":0,
			"target":34962
		},
		{
			"buffer":0,
			"byteLength":21120,
			"byteOffset":21120,
			"target":34962
		},
		{
			"buffer":0,
			"byteLength":14080,
			"byteOffset":42240,
			"target":34962
		},
		{
			"buffer":0,
			"byteLength":8040,
			"byteOffset":56320,
			"target":34963
		},
		{
			"buffer":0,
			"byteLength":2844,
			"byteOffset":64360,
			"target":34962
		},
		{
			"buffer":0,
			"byteLength":2844,
			"byteOffset":67204,
			"target":34962
		},
		{
			"buffer":0,
			"byteLength":1896,
			"byteOffset":70048,
			"target":34962
		},
		{
			"buffer":0,
			"byteLength":810,
			"byteOffset":71944,
			"target":34963
		}
	],
	"buffers":[
		{
			"byteLength":72756,
			"uri":"building_05.bin"
		}
	]
}
