{
	"asset":{
		"generator":"Khronos glTF Blender I/O v5.0.21",
		"version":"2.0"
	},
	"extensionsUsed":[
		"KHR_materials_specular"
	],
	"scene":0,
	"scenes":[
		{
			"name":"Scene",
			"nodes":[
				0
			]
		}
	],
	"nodes":[
		{
			"mesh":0,
			"name":"building_07"
		}
	],
	"materials":[
		{
			"doubleSided":true,
			"extensions":{
				"KHR_materials_specular":{
					"specularFactor":0
				}
			},
			"name":"Dark Purple",
			"pbrMetallicRoughness":{
				"baseColorFactor":[
					0.0140838623046875,
					0.006496429443359375,
					0.04022216796875,
					1
				],
				"metallicFactor":0,
				"roughnessFactor":0.5
			}
		}
	],
	"meshes":[
		{
			"name":"Plane.004",
			"primitives":[
				{
					"attributes":{
						"POSITION":0,
						"NORMAL":1,
						"TEXCOORD_0":2
					},
					"indices":3,
					"material":0
				},
				{
					"attributes":{
						"POSITION":4,
						"NORMAL":5,
						"TEXCOORD_0":6
					},
					"indices":7
				}
			]
		}
	],
	"accessors":[
		{
			"bufferView":0,
			"componentType":5126,
			"count":5949,
			"max":[
				1.1364887952804565,
				5.4919114112854,
				0.15499892830848694
			],
			"min":[
				-1.018065094947815,
				2.9325485229492188e-05,
				-2.1871423721313477
			],
			"type":"VEC3"
		},
		{
			"bufferView":1,
			"componentType":5126,
			"count":5949,
			"type":"VEC3"
		},
		{
			"bufferView":2,
			"componentType":5126,
			"count":5949,
			"type":"VEC2"
		},
		{
			"bufferView":3,
			"componentType":5123,
			"count":11796,
			"type":"SCALAR"
		},
		{
			"bufferView":4,
			"componentType":5126,
			"count":288,
			"max":[
				0.7559051513671875,
				5.379485607147217,
				-0.07158217579126358
			],
			"min":[
				-0.7581842541694641,
				0.07734560966491699,
				-0.09067405760288239
			],
			"type":"VEC3"
		},
		{
			"bufferView":5,
			"componentType":5126,
			"count":288,
			"type":"VEC3"
		},
		{
			"bufferView":6,
			"componentType":5126,
			"count":288,
			"type":"VEC2"
		},
		{
			"bufferView":7,
			"componentType":5123,
			"count":432,
			"type":"SCALAR"
		}
	],
	"bufferViews":[
		{
			"buffer":0,
			"byteLength":71388,
			"byteOffset":0,
			"target":34962
		},
		{
			"buffer":0,
			"byteLength":71388,
			"byteOffset":71388,
			"target":34962
		},
		{
			"buffer":0,
			"byteLength":47592,
			"byteOffset":142776,
			"target":34962
		},
		{
			"buffer":0,
			"byteLength":23592,
			"byteOffset":190368,
			"target":34963
		},
		{
			"buffer":0,
			"byteLength":3456,
			"byteOffset":213960,
			"target":34962
		},
		{
			"buffer":0,
			"byteLength":3456,
			"byteOffset":217416,
			"target":34962
		},
		{
			"buffer":0,
			"byteLength":2304,
			"byteOffset":220872,
			"target":34962
		},
		{
			"buffer":0,
			"byteLength":864,
			"byteOffset":223176,
			"target":34963
		}
	],
	"buffers":[
		{
			"byteLength":224040,
			"uri":"building_07.bin"
		}
	]
}
