{
	"asset":{
		"generator":"Khronos glTF Blender I/O v5.0.21",
		"version":"2.0"
	},
	"extensionsUsed":[
		"KHR_materials_specular"
	],
	"scene":0,
	"scenes":[
		{
			"name":"Scene",
			"nodes":[
				0
			]
		}
	],
	"nodes":[
		{
			"mesh":0,
			"name":"building_03"
		}
	],
	"materials":[
		{
			"doubleSided":true,
			"extensions":{
				"KHR_materials_specular":{
					"specularFactor":0
				}
			},
			"name":"Dark Blue",
			"pbrMetallicRoughness":{
				"baseColorFactor":[
					0.004329681396484375,
					0.003238677978515625,
					0.03912353515625,
					1
				],
				"metallicFactor":0,
				"roughnessFactor":0.5
			}
		}
	],
	"meshes":[
		{
			"name":"building_03",
			"primitives":[
				{
					"attributes":{
						"POSITION":0,
						"NORMAL":1,
						"TEXCOORD_0":2
					},
					"indices":3,
					"material":0
				},
				{
					"attributes":{
						"POSITION":4,
						"NORMAL":5,
						"TEXCOORD_0":6
					},
					"indices":7
				}
			]
		}
	],
	"accessors":[
		{
			"bufferView":0,
			"componentType":5126,
			"count":520,
			"max":[
				0.31988826394081116,
				3.4433984756469727,
				0.33290305733680725
			],
			"min":[
				-0.31482478976249695,
				-0.002612590789794922,
				-0.9175770878791809
			],
			"type":"VEC3"
		},
		{
			"bufferView":1,
			"componentType":5126,
			"count":520,
			"type":"VEC3"
		},
		{
			"bufferView":2,
			"componentType":5126,
			"count":520,
			"type":"VEC2"
		},
		{
			"bufferView":3,
			"componentType":5123,
			"count":1266,
			"type":"SCALAR"
		},
		{
			"bufferView":4,
			"componentType":5126,
			"count":57,
			"max":[
				0.22253718972206116,
				3.1814756393432617,
				0.17631658911705017
			],
			"min":[
				-0.22134824097156525,
				-0.002612590789794922,
				0.16330581903457642
			],
			"type":"VEC3"
		},
		{
			"bufferView":5,
			"componentType":5126,
			"count":57,
			"type":"VEC3"
		},
		{
			"bufferView":6,
			"componentType":5126,
			"count":57,
			"type":"VEC2"
		},
		{
			"bufferView":7,
			"componentType":5123,
			"count":111,
			"type":"SCALAR"
		}
	],
	"bufferViews":[
		{
			"buffer":0,
			"byteLength":6240,
			"byteOffset":0,
			"target":34962
		},
		{
			"buffer":0,
			"byteLength":6240,
			"byteOffset":6240,
			"target":34962
		},
		{
			"buffer":0,
			"byteLength":4160,
			"byteOffset":12480,
			"target":34962
		},
		{
			"buffer":0,
			"byteLength":2532,
			"byteOffset":16640,
			"target":34963
		},
		{
			"buffer":0,
			"byteLength":684,
			"byteOffset":19172,
			"target":34962
		},
		{
			"buffer":0,
			"byteLength":684,
			"byteOffset":19856,
			"target":34962
		},
		{
			"buffer":0,
			"byteLength":456,
			"byteOffset":20540,
			"target":34962
		},
		{
			"buffer":0,
			"byteLength":222,
			"byteOffset":20996,
			"target":34963
		}
	],
	"buffers":[
		{
			"byteLength":21220,
			"uri":"building_03.bin"
		}
	]
}
