{
	"asset":{
		"generator":"Khronos glTF Blender I/O v5.0.21",
		"version":"2.0"
	},
	"extensionsUsed":[
		"KHR_materials_specular"
	],
	"scene":0,
	"scenes":[
		{
			"name":"Scene",
			"nodes":[
				0
			]
		}
	],
	"nodes":[
		{
			"mesh":0,
			"name":"fret_button.001",
			"translation":[
				0,
				0.003219327423721552,
				0
			]
		}
	],
	"materials":[
		{
			"doubleSided":true,
			"extensions":{
				"KHR_materials_specular":{
					"specularFactor":0
				}
			},
			"name":"Black_No_Spec",
			"pbrMetallicRoughness":{
				"baseColorFactor":[
					0,
					0,
					0,
					1
				],
				"metallicFactor":0,
				"roughnessFactor":0.5
			}
		}
	],
	"meshes":[
		{
			"name":"Cube.003",
			"primitives":[
				{
					"attributes":{
						"POSITION":0,
						"NORMAL":1,
						"TEXCOORD_0":2
					},
					"indices":3
				},
				{
					"attributes":{
						"POSITION":4,
						"NORMAL":5,
						"TEXCOORD_0":6
					},
					"indices":7
				},
				{
					"attributes":{
						"POSITION":8,
						"NORMAL":9,
						"TEXCOORD_0":10
					},
					"indices":11,
					"material":0
				}
			]
		}
	],
	"accessors":[
		{
			"bufferView":0,
			"componentType":5126,
			"count":108,
			"max":[
				0.4695802628993988,
				0.046207498759031296,
				0.4695802628993988
			],
			"min":[
				-0.4695802628993988,
				-0.09986898303031921,
				-0.4695802628993988
			],
			"type":"VEC3"
		},
		{
			"bufferView":1,
			"componentType":5126,
			"count":108,
			"type":"VEC3"
		},
		{
			"bufferView":2,
			"componentType":5126,
			"count":108,
			"type":"VEC2"
		},
		{
			"bufferView":3,
			"componentType":5123,
			"count":168,
			"type":"SCALAR"
		},
		{
			"bufferView":4,
			"componentType":5126,
			"count":116,
			"max":[
				0.38810738921165466,
				0.010969361290335655,
				0.38810738921165466
			],
			"min":[
				-0.38810738921165466,
				0.006431890185922384,
				-0.38810738921165466
			],
			"type":"VEC3"
		},
		{
			"bufferView":5,
			"componentType":5126,
			"count":116,
			"type":"VEC3"
		},
		{
			"bufferView":6,
			"componentType":5126,
			"count":116,
			"type":"VEC2"
		},
		{
			"bufferView":7,
			"componentType":5123,
			"count":204,
			"type":"SCALAR"
		},
		{
			"bufferView":8,
			"componentType":5126,
			"count":224,
			"max":[
				0.4695802628993988,
				0.046207498759031296,
				0.4695802628993988
			],
			"min":[
				-0.4695802628993988,
				-0.09986898303031921,
				-0.4695802628993988
			],
			"type":"VEC3"
		},
		{
			"bufferView":9,
			"componentType":5126,
			"count":224,
			"type":"VEC3"
		},
		{
			"bufferView":10,
			"componentType":5126,
			"count":224,
			"type":"VEC2"
		},
		{
			"bufferView":11,
			"componentType":5123,
			"count":288,
			"type":"SCALAR"
		}
	],
	"bufferViews":[
		{
			"buffer":0,
			"byteLength":1296,
			"byteOffset":0,
			"target":34962
		},
		{
			"buffer":0,
			"byteLength":1296,
			"byteOffset":1296,
			"target":34962
		},
		{
			"buffer":0,
			"byteLength":864,
			"byteOffset":2592,
			"target":34962
		},
		{
			"buffer":0,
			"byteLength":336,
			"byteOffset":3456,
			"target":34963
		},
		{
			"buffer":0,
			"byteLength":1392,
			"byteOffset":3792,
			"target":34962
		},
		{
			"buffer":0,
			"byteLength":1392,
			"byteOffset":5184,
			"target":34962
		},
		{
			"buffer":0,
			"byteLength":928,
			"byteOffset":6576,
			"target":34962
		},
		{
			"buffer":0,
			"byteLength":408,
			"byteOffset":7504,
			"target":34963
		},
		{
			"buffer":0,
			"byteLength":2688,
			"byteOffset":7912,
			"target":34962
		},
		{
			"buffer":0,
			"byteLength":2688,
			"byteOffset":10600,
			"target":34962
		},
		{
			"buffer":0,
			"byteLength":1792,
			"byteOffset":13288,
			"target":34962
		},
		{
			"buffer":0,
			"byteLength":576,
			"byteOffset":15080,
			"target":34963
		}
	],
	"buffers":[
		{
			"byteLength":15656,
			"uri":"note_hold_button.bin"
		}
	]
}
